<svg xmlns="http://www.w3.org/2000/svg" viewBox="0 0 470.8 494.68"><defs><style>.cls-1{fill:#f7931e;}</style></defs><g id="I"><path class="cls-1" d="M219.72,369.39s1.87.43,4,.83c1.59.31,3.31.59,4.41.75,1.6.23,4.16.58,6.18.79l3,.29V128.19s-1.15.08-2.38.2c-.77.07-1.66.19-2.14.25-1.12.13-3.18.41-4.26.55l-1.75.27c-1,.15-2.09.39-2.76.51-1.09.19-4.28.87-4.28.87Z"/></g><g id="O"><path class="cls-1" d="M246.76,127.82a122.31,122.31,0,1,0,122.3,122.3A122.31,122.31,0,0,0,246.76,127.82Zm0,229.47A107.17,107.17,0,1,1,353.92,250.12,107.17,107.17,0,0,1,246.76,357.29Z"/></g><g id="K"><polygon class="cls-1" points="274.26 252.52 260.47 260.34 359.08 358.94 380.69 358.94 274.26 252.52"/><polygon class="cls-1" points="372.69 372.56 372.75 372.61 372.8 372.56 372.69 372.56"/></g><g id="Z-dół"><path class="cls-1" d="M62.18,372.56H432.41c3-4.42,5.86-9,8.54-13.62H53.65C56.33,363.58,59.19,368.14,62.18,372.56Z"/><path class="cls-1" d="M34,372.43v.09H34Z"/></g><g id="_" data-name="/"><polygon class="cls-1" points="53.63 358.94 86.51 358.94 470.5 141.28 444.09 141.24 53.63 358.94"/></g><g id="Z-góra"><path class="cls-1" d="M30.87,127.63h-.11v.19Z"/><path class="cls-1" d="M50.59,141.24h393.5q-3.76-7-8-13.62H58.65C55.82,132.06,53.11,136.58,50.59,141.24Z"/></g><g id="C"><path class="cls-1" d="M440.94,358.93a223.33,223.33,0,0,1-193.6,111.91c-123.44,0-223.51-100.08-223.51-223.5S123.9,23.83,247.34,23.83A223.46,223.46,0,0,1,444.09,141.24H470.8C431.08,57.73,346,0,247.34,0,110.74,0,0,110.74,0,247.34S110.74,494.68,247.34,494.68c96.43,0,179.91-55.22,220.71-135.74Z"/></g></svg>