<svg width="25" height="25" viewBox="0 0 25 25" fill="none" xmlns="http://www.w3.org/2000/svg">
<rect width="24.2344" height="24.2344" rx="12.1172" transform="matrix(0.999999 0 0.00112953 1 0 0)" fill="#3A3631"/>
<path d="M9.31416 7.04688C9.78049 7.04688 10.211 7.08275 10.6057 7.19036C11.0004 7.2621 11.3234 7.40559 11.6105 7.58495C11.8977 7.76431 12.1132 8.01541 12.2571 8.33825C12.4009 8.66109 12.4731 9.05568 12.4736 9.48614C12.4742 9.98834 12.367 10.4188 12.1163 10.7416C11.9014 11.0645 11.5431 11.3515 11.1128 11.5667C11.7229 11.746 12.1896 12.0689 12.477 12.4993C12.7645 12.9298 12.9444 13.4679 12.9451 14.0777C12.9457 14.5799 12.8386 15.0103 12.6596 15.3691C12.4807 15.7278 12.1941 16.0506 11.8715 16.2659C11.5489 16.4811 11.1545 16.6604 10.7241 16.7681C10.2938 16.8757 9.86342 16.9474 9.43296 16.9474H4.62617L4.61499 7.04688H9.31416ZM9.03173 11.0645C9.42631 11.0645 9.74903 10.9569 9.99993 10.7775C10.2508 10.5982 10.3581 10.2753 10.3576 9.88072C10.3574 9.66549 10.3213 9.45027 10.2494 9.30678C10.1775 9.16329 10.0697 9.05568 9.92612 8.94806C9.78256 8.87632 9.63899 8.80458 9.45959 8.76871C9.28019 8.73284 9.10083 8.73284 8.88561 8.73284H6.80506L6.80769 11.0645H9.03173ZM9.14412 15.2973C9.35935 15.2973 9.57454 15.2614 9.75386 15.2256C9.93317 15.1897 10.1124 15.118 10.2558 15.0103C10.3992 14.9027 10.5067 14.7951 10.6141 14.6158C10.6856 14.4364 10.7571 14.2212 10.7568 13.9701C10.7563 13.4679 10.6124 13.1092 10.3251 12.8581C10.0379 12.6428 9.6432 12.5352 9.17687 12.5352H6.80935L6.81247 15.2973H9.14412ZM16.0673 15.2614C16.3546 15.5484 16.7852 15.6919 17.3591 15.6919C17.7537 15.6919 18.1123 15.5843 18.3991 15.4049C18.6858 15.1897 18.8649 14.9745 18.9364 14.7592H20.6941C20.4081 15.6202 19.9784 16.23 19.4049 16.6246C18.8313 16.9833 18.15 17.1985 17.325 17.1985C16.751 17.1985 16.2487 17.0909 15.7822 16.9115C15.3156 16.7322 14.9566 16.4811 14.6334 16.1224C14.3102 15.7995 14.0586 15.4049 13.9146 14.9386C13.7347 14.4723 13.6624 13.9701 13.6618 13.3961C13.6612 12.8581 13.7324 12.3559 13.9112 11.8895C14.09 11.4232 14.3407 11.0286 14.6631 10.6699C14.9856 10.3471 15.3799 10.0601 15.8101 9.88072C16.2762 9.70137 16.7424 9.59375 17.3164 9.59375C17.9262 9.59375 18.4644 9.70137 18.931 9.95247C19.3976 10.2036 19.7567 10.4905 20.0441 10.921C20.3315 11.3156 20.5473 11.7819 20.6913 12.2841C20.7637 12.7863 20.8001 13.2885 20.7649 13.8625H15.5635C15.5642 14.4364 15.78 14.9745 16.0673 15.2614ZM18.3229 11.4949C18.0716 11.2438 17.6768 11.1004 17.2105 11.1004C16.8876 11.1004 16.6366 11.1721 16.4215 11.2797C16.2064 11.3873 16.0631 11.5308 15.9197 11.6743C15.7764 11.8178 15.7049 11.9971 15.6692 12.1765C15.6335 12.3559 15.5978 12.4993 15.598 12.6428H18.8264C18.7541 12.1048 18.5743 11.746 18.3229 11.4949ZM15.162 7.72843H19.1796L19.1807 8.69696H15.1631L15.162 7.72843Z" fill="white"/>
</svg>
