<svg width="32" height="32" viewBox="0 0 32 32" fill="none" xmlns="http://www.w3.org/2000/svg">
<path fill-rule="evenodd" clip-rule="evenodd" d="M8.08817 5.69414C7.60511 5.19718 6.84245 5.21617 6.38472 5.73655C5.92699 6.25693 5.94752 7.08164 6.43058 7.5786L14.2464 15.6194L5.70965 24.4019C5.22659 24.8988 5.20608 25.7235 5.66383 26.2439C6.12158 26.7643 6.88425 26.7832 7.36731 26.2863L15.9911 17.4143L24.6331 26.305C25.1161 26.8019 25.8788 26.7829 26.3365 26.2626C26.7943 25.7422 26.7737 24.9175 26.2907 24.4205L17.7358 15.6194L25.5515 7.57876C26.0345 7.08181 26.055 6.25711 25.5973 5.73675C25.1395 5.21639 24.3769 5.19742 23.8938 5.69437L15.9911 13.8245L8.08817 5.69414Z" fill="#050215"/>
</svg>
