<svg width="36" height="35" viewBox="0 0 36 35" fill="none" xmlns="http://www.w3.org/2000/svg">
<g clip-path="url(#clip0_1004_531)">
<path d="M35.1696 17.5C35.1587 7.83502 27.3149 0 17.6499 0C7.98491 0 0.158752 7.83502 0.169669 17.5C0.180586 27.165 8.02445 35 17.6894 35C27.3544 35 35.1806 27.165 35.1696 17.5Z" fill="#FF6A00"/>
<path d="M9.71679 11.5542L15.7735 16.128L15.7755 16.1297C16.4481 16.6229 16.7845 16.8696 17.153 16.9649C17.4787 17.0492 17.8212 17.0492 18.1469 16.9649C18.5157 16.8696 18.8532 16.622 19.5269 16.128C19.5269 16.128 23.4117 13.1468 25.5834 11.5542M8.7251 21.2727V13.736C8.7251 12.6253 8.7251 12.0695 8.94126 11.6452C9.13145 11.272 9.43462 10.9688 9.80779 10.7787C10.2321 10.5625 10.7879 10.5625 11.8986 10.5625H23.4019C24.5128 10.5625 25.0674 10.5625 25.4916 10.7787C25.8648 10.9688 26.169 11.272 26.3591 11.6452C26.5751 12.069 26.5751 12.6242 26.5751 13.7328V21.2761C26.5751 22.3847 26.5751 22.939 26.3591 23.3628C26.169 23.736 25.8648 24.0397 25.4916 24.2299C25.0678 24.4459 24.5135 24.4459 23.4048 24.4459H11.8954C10.7867 24.4459 10.2316 24.4459 9.80779 24.2299C9.43462 24.0397 9.13145 23.736 8.94126 23.3628C8.7251 22.9386 8.7251 22.3835 8.7251 21.2727Z" stroke="white" stroke-width="1.98333" stroke-linecap="round" stroke-linejoin="round"/>
</g>
<defs>
<clipPath id="clip0_1004_531">
<rect width="35.7" height="35" fill="white" transform="translate(0.149902)"/>
</clipPath>
</defs>
</svg>
