<svg width="24" height="24" viewBox="0 0 24 24" fill="none" xmlns="http://www.w3.org/2000/svg">
<g clip-path="url(#clip0_1033_850)">
<path d="M17.9208 1.50996C17.921 1.70694 17.8823 1.90203 17.8068 2.08396C17.7313 2.26589 17.6205 2.43107 17.4808 2.56996L9.80879 10.243C9.57657 10.4751 9.39237 10.7507 9.26669 11.0541C9.14101 11.3575 9.07632 11.6826 9.07632 12.011C9.07632 12.3393 9.14101 12.6645 9.26669 12.9678C9.39237 13.2712 9.57657 13.5468 9.80879 13.779L17.4708 21.44C17.614 21.5783 17.7283 21.7438 17.8069 21.9269C17.8855 22.1099 17.9269 22.3067 17.9287 22.5059C17.9304 22.705 17.8924 22.9025 17.817 23.0869C17.7416 23.2712 17.6302 23.4387 17.4894 23.5795C17.3485 23.7204 17.1811 23.8318 16.9967 23.9072C16.8124 23.9826 16.6148 24.0206 16.4157 24.0188C16.2165 24.0171 16.0197 23.9757 15.8367 23.8971C15.6537 23.8185 15.4882 23.7042 15.3498 23.561L7.68779 15.9C6.65762 14.8679 6.07904 13.4692 6.07904 12.011C6.07904 10.5527 6.65762 9.15405 7.68779 8.12196L15.3598 0.448958C15.5696 0.239042 15.8369 0.0960714 16.128 0.0381373C16.419 -0.0197968 16.7207 0.00990933 16.9949 0.123497C17.2691 0.237084 17.5034 0.429448 17.6682 0.676247C17.833 0.923045 17.9209 1.21319 17.9208 1.50996Z" fill="#FFFCFA"/>
</g>
<defs>
<clipPath id="clip0_1033_850">
<rect width="24" height="24" fill="white" transform="matrix(0 1 -1 0 24 0)"/>
</clipPath>
</defs>
</svg>
