<svg width="36" height="35" viewBox="0 0 36 35" fill="none" xmlns="http://www.w3.org/2000/svg">
<rect width="35" height="35" rx="17.5" transform="matrix(0.999999 0 0.00112953 1 0 0)" fill="#FF6A00"/>
<path d="M27.2455 25.7568C26.097 25.7295 24.9759 25.7295 23.8275 25.7568C23.5814 25.7568 23.5266 25.7021 23.5264 25.4561C23.5241 23.4326 23.5218 21.3818 23.5195 19.3584C23.519 18.8936 23.4911 18.4287 23.3539 17.9912C22.9421 16.5693 21.3009 16.0498 20.1262 17.0068C19.4979 17.499 19.2525 18.1826 19.2535 19.0029C19.2556 20.917 19.2578 22.8311 19.2599 24.7451C19.2602 24.9912 19.2332 25.2373 19.2608 25.5107C19.2884 25.7295 19.1791 25.7842 18.9876 25.7568C17.8119 25.7568 16.6634 25.7568 15.4876 25.7568C15.2689 25.7568 15.2141 25.7021 15.2139 25.4834C15.2393 23.7607 15.2374 22.0381 15.2354 20.2881C15.233 18.1553 15.2306 16.0225 15.2008 13.917C15.2006 13.6709 15.2552 13.6162 15.4739 13.6162C16.6497 13.6162 17.7982 13.6162 18.9739 13.6162C19.1927 13.6162 19.2474 13.6709 19.2477 13.8897C19.2482 14.3272 19.2487 14.7647 19.2493 15.2842C19.3312 15.2022 19.3585 15.1748 19.3858 15.1475C20.4505 13.5889 21.9539 13.1514 23.7315 13.4248C25.7827 13.7529 27.0968 15.1748 27.4274 17.3623C27.51 17.8818 27.5379 18.4014 27.5385 18.9209C27.541 21.1084 27.5434 23.2686 27.5459 25.4561C27.5462 25.6748 27.4916 25.7568 27.2455 25.7568Z" fill="white"/>
<path d="M13.0198 19.6875C13.022 21.6016 13.0241 23.5156 13.0263 25.4297C13.0266 25.6758 12.972 25.7578 12.7259 25.7578C11.5774 25.7305 10.429 25.7578 9.28056 25.7578C9.06181 25.7578 9.00706 25.7031 9.00681 25.4844C9.00246 21.6289 8.99807 17.7461 8.99372 13.8906C8.9935 13.6992 9.0481 13.6172 9.26685 13.6172C10.4426 13.6172 11.6184 13.6172 12.7942 13.6172C13.0403 13.6172 13.0677 13.6992 13.068 13.918C13.0154 15.832 13.0176 17.7461 13.0198 19.6875Z" fill="white"/>
<path d="M13.2009 10.4454C12.9287 11.5392 11.8083 12.1681 10.5229 11.9493C9.15545 11.7306 8.38831 10.3907 8.87902 9.07823C9.20622 8.25792 9.99863 7.76573 11.0104 7.79308C12.5416 7.76573 13.5547 8.9962 13.2009 10.4454Z" fill="white"/>
</svg>
