<svg width="192" height="76" viewBox="0 0 192 76" fill="none" xmlns="http://www.w3.org/2000/svg">
<path d="M67.7253 17.002H8.56641V19.0052H67.7253V17.002Z" fill="#FF6A00"/>
<path d="M38.2368 34.177L36.6001 35.7969L54.632 53.6433L56.2687 52.0234L38.2368 34.177Z" fill="#FF6A00"/>
<path d="M33.762 19.6289H31.1567V52.6328H33.762V19.6289Z" fill="#FF6A00"/>
<path d="M68.2746 16.5054L4.98535 51.9111L5.9814 53.6552L69.2706 18.2495L68.2746 16.5054Z" fill="#FF6A00"/>
<path d="M33.8145 50.9729C33.7043 51.0076 33.5991 51.0423 33.4889 51.082C33.1332 51.201 32.8576 51.5828 32.9829 51.9646C33.0981 52.3167 33.4889 52.5944 33.8747 52.4654C33.9849 52.4307 34.0901 52.396 34.2003 52.3563C34.556 52.2373 34.8316 51.8555 34.7063 51.4737C34.5861 51.1167 34.1953 50.844 33.8145 50.9729Z" fill="#FF6A00"/>
<path d="M72.5673 51.3542L5.08838 52.4629L5.1268 54.7535L72.6057 53.6448L72.5673 51.3542Z" fill="#FF6A00"/>
<path d="M38.5393 52.8911C28.5793 52.8911 20.478 44.9971 20.478 35.2883C20.478 25.5795 28.5793 17.6855 38.5393 17.6855C48.4994 17.6855 56.6006 25.5795 56.6006 35.2883C56.6006 44.9971 48.4943 52.8911 38.5393 52.8911ZM38.5393 19.4062C29.5412 19.4062 22.2165 26.5316 22.2165 35.2883C22.2165 44.045 29.5412 51.1704 38.5393 51.1704C47.5374 51.1704 54.8621 44.045 54.8621 35.2883C54.8621 26.5316 47.5374 19.4062 38.5393 19.4062Z" fill="#FF6A00"/>
<path d="M38.5397 75.5471C17.7179 75.5471 0.778809 58.7575 0.778809 38.1251C0.778809 17.4927 17.7179 0.703125 38.5397 0.703125C45.9797 0.703125 53.5499 3.03363 59.8626 7.26821C61.8716 8.61693 63.8205 10.2532 65.6492 12.1276C67.3727 13.8978 68.7705 15.8316 69.9128 18.048L67.0771 19.481C66.0751 17.5472 64.8576 15.8564 63.3546 14.3143C61.6812 12.5937 59.9027 11.1011 58.074 9.87639C52.2823 5.99387 45.3434 3.85179 38.5347 3.85179C19.4714 3.85179 3.9602 19.2282 3.9602 38.1251C3.9602 57.022 19.4714 72.3984 38.5347 72.3984C51.0198 72.3984 62.553 65.6895 68.6402 54.8948C68.6953 54.8006 69.1863 53.918 69.6222 53.0304L69.7324 52.8023C70.003 52.2519 70.2835 51.6817 70.2685 51.4139L73.4449 51.2156C73.515 52.3114 73.0441 53.2635 72.5932 54.1808L72.488 54.399C72.027 55.346 71.521 56.2534 71.4208 56.427C68.1993 62.1491 63.5149 66.9391 57.8836 70.2811C52.0819 73.7273 45.3935 75.5471 38.5397 75.5471Z" fill="#FF6A00"/>
<path d="M104.34 18.3029C104.277 18.9048 104.229 19.4909 104.197 20.0612C104.182 20.6156 104.174 21.0432 104.174 21.3442C104.174 21.6452 104.182 21.9303 104.197 22.1996C104.213 22.4688 104.229 22.6906 104.245 22.8648H103.698C103.588 21.8511 103.413 21.0512 103.176 20.4651C102.954 19.879 102.613 19.4672 102.154 19.2296C101.711 18.9761 101.085 18.8494 100.277 18.8494H98.6376C98.1307 18.8494 97.7426 18.8969 97.4733 18.992C97.2199 19.0712 97.0456 19.2454 96.9506 19.5147C96.8556 19.7681 96.808 20.172 96.808 20.7264V32.7015C96.808 33.24 96.8556 33.644 96.9506 33.9132C97.0456 34.1825 97.2199 34.3647 97.4733 34.4597C97.7426 34.5389 98.1307 34.5785 98.6376 34.5785H100.182C101.085 34.5785 101.798 34.436 102.32 34.1508C102.859 33.8657 103.263 33.3984 103.532 32.749C103.817 32.0996 104.031 31.2125 104.174 30.0879H104.72C104.673 30.5472 104.649 31.1492 104.649 31.8936C104.649 32.2104 104.657 32.6698 104.673 33.2717C104.704 33.8736 104.752 34.4914 104.815 35.125C104.007 35.0933 103.097 35.0775 102.083 35.0775C101.069 35.0616 100.166 35.0537 99.3741 35.0537C99.0098 35.0537 98.5425 35.0537 97.9723 35.0537C97.402 35.0537 96.7843 35.0616 96.119 35.0775C95.4696 35.0775 94.8043 35.0854 94.1232 35.1012C93.4579 35.1012 92.8164 35.1092 92.1986 35.125V34.6498C92.7372 34.6181 93.1411 34.5548 93.4104 34.4597C93.6797 34.3647 93.8539 34.1746 93.9331 33.8895C94.0281 33.6044 94.0757 33.1767 94.0757 32.6064V20.8215C94.0757 20.2354 94.0281 19.8077 93.9331 19.5384C93.8539 19.2533 93.6717 19.0632 93.3866 18.9682C93.1173 18.8573 92.7213 18.794 92.1986 18.7781V18.3029C92.8164 18.3188 93.4579 18.3346 94.1232 18.3504C94.8043 18.3504 95.4696 18.3584 96.119 18.3742C96.7843 18.3742 97.402 18.3742 97.9723 18.3742C98.5425 18.3742 99.0098 18.3742 99.3741 18.3742C100.103 18.3742 100.926 18.3742 101.845 18.3742C102.78 18.3584 103.611 18.3346 104.34 18.3029ZM100.396 26.4288C100.396 26.4288 100.396 26.508 100.396 26.6664C100.396 26.8248 100.396 26.904 100.396 26.904H96.0952C96.0952 26.904 96.0952 26.8248 96.0952 26.6664C96.0952 26.508 96.0952 26.4288 96.0952 26.4288H100.396ZM101.085 23.2925C101.021 24.1954 100.99 24.8844 100.99 25.3596C101.006 25.8348 101.014 26.2704 101.014 26.6664C101.014 27.0624 101.021 27.498 101.037 27.9732C101.053 28.4484 101.093 29.1375 101.156 30.0404H100.61C100.53 29.5176 100.427 29.0187 100.301 28.5435C100.174 28.0524 99.9444 27.6564 99.6117 27.3555C99.2949 27.0545 98.796 26.904 98.1148 26.904V26.4288C98.6217 26.4288 99.0177 26.3259 99.3028 26.12C99.6038 25.914 99.8335 25.6448 99.9919 25.3121C100.15 24.9795 100.261 24.6389 100.325 24.2904C100.404 23.9261 100.475 23.5935 100.538 23.2925H101.085ZM112.613 16.4972V32.9153C112.613 33.5806 112.74 34.032 112.993 34.2696C113.262 34.5072 113.706 34.626 114.324 34.626V35.125C114.054 35.1092 113.635 35.0933 113.064 35.0775C112.494 35.0458 111.924 35.03 111.354 35.03C110.783 35.03 110.205 35.0458 109.619 35.0775C109.049 35.0933 108.621 35.1092 108.336 35.125V34.626C108.954 34.626 109.389 34.5072 109.643 34.2696C109.912 34.032 110.047 33.5806 110.047 32.9153V19.3484C110.047 18.6356 109.928 18.1128 109.69 17.7802C109.453 17.4317 109.001 17.2575 108.336 17.2575V16.7585C108.843 16.8061 109.334 16.8298 109.809 16.8298C110.332 16.8298 110.831 16.8061 111.306 16.7585C111.781 16.6952 112.217 16.6081 112.613 16.4972ZM127.2 22.746L120.642 34.7686H122.781C123.414 34.7686 123.977 34.6419 124.468 34.3884C124.959 34.135 125.363 33.7152 125.68 33.1292C125.996 32.5431 126.186 31.7669 126.25 30.8007H126.796C126.796 31.862 126.804 32.749 126.82 33.4618C126.836 34.1746 126.86 34.7607 126.891 35.22C126.179 35.1884 125.442 35.1646 124.682 35.1488C123.921 35.1329 123.169 35.125 122.424 35.125C121.617 35.125 120.793 35.1329 119.953 35.1488C119.13 35.1804 118.338 35.2121 117.577 35.2438L124.135 23.2212H121.949C121.268 23.2212 120.682 23.3559 120.191 23.6252C119.7 23.8786 119.312 24.2984 119.027 24.8844C118.758 25.4547 118.583 26.2229 118.504 27.1892H117.981C117.981 26.112 117.973 25.225 117.958 24.528C117.942 23.8311 117.918 23.245 117.886 22.7698C118.583 22.8015 119.312 22.8252 120.072 22.8411C120.833 22.8569 121.593 22.8648 122.353 22.8648C123.145 22.8648 123.953 22.8569 124.777 22.8411C125.616 22.8094 126.424 22.7777 127.2 22.746ZM122.757 16.8773C123.248 16.8773 123.66 17.0357 123.993 17.3525C124.325 17.6535 124.492 18.0336 124.492 18.493C124.492 18.9524 124.325 19.3404 123.993 19.6572C123.66 19.9582 123.248 20.1087 122.757 20.1087C122.266 20.1087 121.854 19.9582 121.522 19.6572C121.189 19.3404 121.023 18.9524 121.023 18.493C121.023 18.0336 121.189 17.6535 121.522 17.3525C121.854 17.0357 122.266 16.8773 122.757 16.8773ZM137.978 22.5322C139.245 22.5322 140.299 23.0628 141.138 24.1241C141.993 25.1696 142.421 26.7615 142.421 28.8999C142.421 30.4047 142.176 31.6402 141.685 32.6064C141.193 33.5727 140.536 34.2934 139.712 34.7686C138.905 35.228 138.025 35.4576 137.075 35.4576C136.331 35.4576 135.618 35.2755 134.937 34.9112C134.256 34.531 133.733 33.9608 133.369 33.2004L133.796 33.3192C134.145 33.8578 134.58 34.2617 135.103 34.531C135.626 34.8003 136.156 34.9349 136.695 34.9349C137.693 34.9349 138.437 34.4518 138.928 33.4856C139.435 32.5193 139.689 31.0304 139.689 29.0187C139.689 27.704 139.586 26.6268 139.38 25.7873C139.19 24.9478 138.897 24.338 138.501 23.9578C138.121 23.5618 137.637 23.3638 137.051 23.3638C136.37 23.3638 135.745 23.6568 135.174 24.2429C134.604 24.829 134.263 25.6764 134.153 26.7852L133.915 26.2863C134.137 25.0983 134.612 24.1796 135.341 23.5301C136.085 22.8648 136.964 22.5322 137.978 22.5322ZM134.295 16.5209V34.1508C134.026 34.2459 133.749 34.3647 133.464 34.5072C133.178 34.6498 132.909 34.8082 132.656 34.9824C132.402 35.1408 132.165 35.3151 131.943 35.5052L131.563 35.3151C131.626 35.0933 131.666 34.8716 131.682 34.6498C131.713 34.428 131.729 34.1984 131.729 33.9608V19.3721C131.729 18.6593 131.602 18.1366 131.349 17.804C131.111 17.4555 130.668 17.2813 130.018 17.2813V16.7823C130.525 16.8298 131.016 16.8536 131.492 16.8536C132.014 16.8536 132.513 16.8298 132.988 16.7823C133.464 16.7189 133.899 16.6318 134.295 16.5209ZM148.867 16.8773C149.358 16.8773 149.77 17.0357 150.102 17.3525C150.435 17.6535 150.601 18.0336 150.601 18.493C150.601 18.9524 150.435 19.3404 150.102 19.6572C149.77 19.9582 149.358 20.1087 148.867 20.1087C148.376 20.1087 147.964 19.9582 147.631 19.6572C147.299 19.3404 147.132 18.9524 147.132 18.493C147.132 18.0336 147.299 17.6535 147.631 17.3525C147.964 17.0357 148.376 16.8773 148.867 16.8773ZM150.293 22.6035V32.9153C150.293 33.5806 150.419 34.032 150.673 34.2696C150.942 34.5072 151.385 34.626 152.003 34.626V35.125C151.734 35.1092 151.314 35.0933 150.744 35.0775C150.19 35.0458 149.619 35.03 149.033 35.03C148.479 35.03 147.909 35.0458 147.323 35.0775C146.736 35.0933 146.301 35.1092 146.016 35.125V34.626C146.633 34.626 147.069 34.5072 147.323 34.2696C147.592 34.032 147.726 33.5806 147.726 32.9153V25.4547C147.726 24.7419 147.608 24.2192 147.37 23.8865C147.132 23.538 146.681 23.3638 146.016 23.3638V22.8648C146.523 22.9124 147.014 22.9361 147.489 22.9361C148.027 22.9361 148.526 22.9124 148.986 22.8648C149.461 22.8015 149.897 22.7144 150.293 22.6035ZM160.932 22.5322C162.326 22.5322 163.419 22.952 164.211 23.7915C165.003 24.631 165.399 25.9616 165.399 27.7832H157.202L157.155 27.3317H162.881C162.897 26.5556 162.833 25.8428 162.691 25.1933C162.548 24.528 162.326 23.9974 162.025 23.6014C161.724 23.2054 161.328 23.0074 160.837 23.0074C160.156 23.0074 159.562 23.3717 159.055 24.1004C158.564 24.8132 158.263 25.9616 158.152 27.5456L158.224 27.6644C158.208 27.8861 158.192 28.1316 158.176 28.4009C158.16 28.6544 158.152 28.9078 158.152 29.1612C158.152 30.2542 158.319 31.1729 158.651 31.9174C158.984 32.6619 159.42 33.2242 159.958 33.6044C160.497 33.9687 161.043 34.1508 161.598 34.1508C162.025 34.1508 162.437 34.0875 162.833 33.9608C163.245 33.8182 163.633 33.5885 163.997 33.2717C164.362 32.9391 164.686 32.4876 164.972 31.9174L165.447 32.1075C165.257 32.646 164.964 33.1767 164.568 33.6994C164.172 34.2221 163.665 34.6498 163.047 34.9824C162.429 35.2992 161.709 35.4576 160.885 35.4576C159.776 35.4576 158.81 35.2121 157.986 34.7211C157.162 34.2142 156.529 33.4935 156.085 32.5589C155.642 31.6244 155.42 30.5156 155.42 29.2325C155.42 27.8228 155.65 26.6189 156.109 25.621C156.568 24.6231 157.21 23.8628 158.034 23.34C158.873 22.8015 159.839 22.5322 160.932 22.5322ZM173.095 18.9444V22.8886H176.374V23.3638H173.095V32.7015C173.095 33.3509 173.213 33.8103 173.451 34.0796C173.689 34.3488 174.029 34.4835 174.473 34.4835C174.885 34.4835 175.249 34.3172 175.566 33.9845C175.898 33.6519 176.183 33.0896 176.421 32.2976L176.873 32.4639C176.682 33.3034 176.342 34.0162 175.851 34.6023C175.376 35.1725 174.671 35.4576 173.736 35.4576C173.198 35.4576 172.746 35.3864 172.382 35.2438C172.018 35.1171 171.701 34.927 171.431 34.6736C171.083 34.3092 170.845 33.8736 170.719 33.3668C170.592 32.8599 170.529 32.1867 170.529 31.3472V23.3638H168.343V22.8886H170.529V19.4196C171.02 19.4038 171.479 19.3642 171.907 19.3008C172.334 19.2216 172.73 19.1028 173.095 18.9444ZM182.564 35.2913C181.899 35.2913 181.328 35.1646 180.853 34.9112C180.378 34.6577 180.022 34.3092 179.784 33.8657C179.546 33.4222 179.428 32.9153 179.428 32.3451C179.428 31.6481 179.586 31.0858 179.903 30.6581C180.22 30.2146 180.624 29.8582 181.115 29.5889C181.621 29.3196 182.152 29.0979 182.707 28.9236C183.277 28.7336 183.807 28.5593 184.298 28.4009C184.805 28.2267 185.217 28.0287 185.534 27.8069C185.867 27.5852 186.033 27.2921 186.033 26.9278V25.3121C186.033 24.7419 185.938 24.2904 185.748 23.9578C185.574 23.6093 185.328 23.3638 185.011 23.2212C184.71 23.0787 184.346 23.0074 183.918 23.0074C183.554 23.0074 183.166 23.0628 182.754 23.1737C182.342 23.2688 182.017 23.4668 181.78 23.7677C182.128 23.8628 182.413 24.0528 182.635 24.338C182.873 24.6072 182.992 24.9478 182.992 25.3596C182.992 25.8032 182.841 26.1516 182.54 26.4051C182.255 26.6585 181.891 26.7852 181.447 26.7852C180.956 26.7852 180.592 26.6348 180.354 26.3338C180.117 26.017 179.998 25.6527 179.998 25.2408C179.998 24.8132 180.101 24.4647 180.307 24.1954C180.529 23.9261 180.814 23.6727 181.162 23.4351C181.542 23.1816 182.025 22.9678 182.611 22.7936C183.213 22.6193 183.879 22.5322 184.607 22.5322C185.288 22.5322 185.875 22.6114 186.366 22.7698C186.872 22.9124 187.292 23.15 187.625 23.4826C188.021 23.8469 188.282 24.3063 188.409 24.8607C188.536 25.3992 188.599 26.0566 188.599 26.8328V33.3905C188.599 33.7865 188.647 34.0716 188.742 34.2459C188.852 34.4043 189.027 34.4835 189.264 34.4835C189.423 34.4835 189.573 34.4439 189.716 34.3647C189.874 34.2855 190.056 34.1667 190.262 34.0083L190.5 34.4122C190.167 34.6815 189.827 34.8953 189.478 35.0537C189.145 35.2121 188.718 35.2913 188.195 35.2913C187.688 35.2913 187.276 35.2121 186.96 35.0537C186.643 34.8953 186.405 34.6656 186.247 34.3647C186.104 34.0637 186.033 33.6915 186.033 33.248C185.621 33.9132 185.13 34.4201 184.56 34.7686C183.99 35.1171 183.324 35.2913 182.564 35.2913ZM183.704 34.1508C184.148 34.1508 184.56 34.0241 184.94 33.7707C185.336 33.5172 185.7 33.1371 186.033 32.6302V27.902C185.859 28.1554 185.605 28.3772 185.273 28.5672C184.94 28.7415 184.584 28.9236 184.203 29.1137C183.823 29.3038 183.459 29.5256 183.11 29.779C182.778 30.0166 182.501 30.3255 182.279 30.7056C182.057 31.0858 181.946 31.5689 181.946 32.155C181.946 32.7728 182.105 33.2638 182.421 33.6281C182.738 33.9766 183.166 34.1508 183.704 34.1508ZM106.478 43.3029V43.7781C105.971 43.8573 105.465 44.0395 104.958 44.3246C104.467 44.5939 103.968 45.0453 103.461 45.6789L98.8989 51.3813L99.7068 49.932L105.409 58.2004C105.663 58.5806 105.932 58.8816 106.217 59.1033C106.518 59.3251 106.898 59.5072 107.357 59.6498V60.125C106.93 60.0933 106.415 60.0775 105.813 60.0775C105.211 60.0616 104.681 60.0537 104.221 60.0537C103.936 60.0537 103.58 60.0616 103.152 60.0775C102.74 60.0775 102.217 60.0933 101.584 60.125V59.6498C102.17 59.6181 102.526 59.5231 102.653 59.3647C102.796 59.2063 102.74 58.9449 102.487 58.5806L99.0415 53.2346C98.7564 52.7911 98.5029 52.4584 98.2812 52.2367C98.0594 51.9991 97.8297 51.8486 97.5921 51.7852C97.3545 51.706 97.0615 51.6585 96.713 51.6427V51.1437C97.3783 51.1279 97.9485 50.9774 98.4237 50.6923C98.9148 50.4072 99.3741 50.0191 99.8018 49.528L101.774 47.0332C102.328 46.3521 102.685 45.774 102.843 45.2988C103.001 44.8077 102.962 44.4355 102.724 44.182C102.487 43.9286 102.043 43.794 101.394 43.7781V43.3029C101.726 43.3188 102.051 43.3346 102.368 43.3504C102.701 43.3504 103.033 43.3584 103.366 43.3742C103.714 43.3742 104.055 43.3742 104.387 43.3742C104.815 43.3742 105.203 43.3663 105.552 43.3504C105.916 43.3346 106.225 43.3188 106.478 43.3029ZM98.6851 43.3029V43.7781C98.1624 43.794 97.7664 43.8573 97.4971 43.9682C97.2278 44.0632 97.0456 44.2533 96.9506 44.5384C96.8556 44.8077 96.808 45.2354 96.808 45.8215V57.6064C96.808 58.1767 96.8556 58.6044 96.9506 58.8895C97.0456 59.1746 97.2278 59.3647 97.4971 59.4597C97.7664 59.5548 98.1624 59.6181 98.6851 59.6498V60.125C98.3049 60.0933 97.8218 60.0775 97.2357 60.0775C96.6655 60.0616 96.0794 60.0537 95.4775 60.0537C94.8122 60.0537 94.1865 60.0616 93.6005 60.0775C93.0302 60.0775 92.5629 60.0933 92.1986 60.125V59.6498C92.7372 59.6181 93.1411 59.5548 93.4104 59.4597C93.6797 59.3647 93.8539 59.1746 93.9331 58.8895C94.0281 58.6044 94.0757 58.1767 94.0757 57.6064V45.8215C94.0757 45.2354 94.0281 44.8077 93.9331 44.5384C93.8539 44.2533 93.6717 44.0632 93.3866 43.9682C93.1173 43.8573 92.7213 43.794 92.1986 43.7781V43.3029C92.5629 43.3188 93.0302 43.3346 93.6005 43.3504C94.1865 43.3663 94.8122 43.3742 95.4775 43.3742C96.0794 43.3742 96.6655 43.3663 97.2357 43.3504C97.8218 43.3346 98.3049 43.3188 98.6851 43.3029ZM115.648 47.5322C116.71 47.5322 117.652 47.754 118.476 48.1975C119.3 48.641 119.957 49.338 120.448 50.2884C120.939 51.2388 121.184 52.4822 121.184 54.0187C121.184 55.5552 120.939 56.7986 120.448 57.749C119.957 58.6836 119.3 59.3726 118.476 59.8161C117.652 60.2438 116.71 60.4576 115.648 60.4576C114.603 60.4576 113.66 60.2438 112.821 59.8161C111.981 59.3726 111.316 58.6836 110.825 57.749C110.35 56.7986 110.112 55.5552 110.112 54.0187C110.112 52.4822 110.35 51.2388 110.825 50.2884C111.316 49.338 111.981 48.641 112.821 48.1975C113.66 47.754 114.603 47.5322 115.648 47.5322ZM115.648 48.0074C114.825 48.0074 114.152 48.4826 113.629 49.433C113.106 50.3676 112.845 51.8961 112.845 54.0187C112.845 56.1412 113.106 57.6698 113.629 58.6044C114.152 59.5231 114.825 59.9824 115.648 59.9824C116.456 59.9824 117.122 59.5231 117.644 58.6044C118.183 57.6698 118.452 56.1412 118.452 54.0187C118.452 51.8961 118.183 50.3676 117.644 49.433C117.122 48.4826 116.456 48.0074 115.648 48.0074ZM128.668 41.4972V57.9153C128.668 58.5806 128.794 59.032 129.048 59.2696C129.317 59.5072 129.761 59.626 130.378 59.626V60.125C130.109 60.1092 129.689 60.0933 129.119 60.0775C128.549 60.0458 127.979 60.03 127.408 60.03C126.838 60.03 126.26 60.0458 125.674 60.0775C125.104 60.0933 124.676 60.1092 124.391 60.125V59.626C125.009 59.626 125.444 59.5072 125.698 59.2696C125.967 59.032 126.102 58.5806 126.102 57.9153V44.3484C126.102 43.6356 125.983 43.1128 125.745 42.7802C125.508 42.4317 125.056 42.2575 124.391 42.2575V41.7585C124.898 41.8061 125.389 41.8298 125.864 41.8298C126.387 41.8298 126.886 41.8061 127.361 41.7585C127.836 41.6952 128.272 41.6081 128.668 41.4972ZM131.234 47.556V48.2688L127.408 51.6189V50.9061L131.234 47.556ZM127.408 50.4784V51.1912L123.559 54.5176V53.8048L127.408 50.4784ZM139.221 47.5322C139.76 47.5322 140.275 47.6035 140.766 47.746C141.257 47.8728 141.684 48.0549 142.049 48.2925C142.429 48.5301 142.714 48.8152 142.904 49.1479C143.11 49.4805 143.213 49.8448 143.213 50.2408C143.213 50.716 143.078 51.0883 142.809 51.3576C142.54 51.6268 142.191 51.7615 141.764 51.7615C141.336 51.7615 140.98 51.6427 140.694 51.4051C140.409 51.1675 140.267 50.8269 140.267 50.3834C140.267 49.9716 140.386 49.6389 140.623 49.3855C140.861 49.1162 141.138 48.942 141.455 48.8628C141.312 48.6252 141.059 48.4272 140.694 48.2688C140.346 48.0945 139.966 48.0074 139.554 48.0074C139.126 48.0074 138.714 48.1183 138.318 48.34C137.938 48.5618 137.598 48.9024 137.297 49.3617C136.996 49.8211 136.75 50.4151 136.56 51.1437C136.386 51.8724 136.299 52.7515 136.299 53.7811C136.299 55.1116 136.449 56.1729 136.75 56.9649C137.067 57.7411 137.479 58.2955 137.986 58.6281C138.493 58.9608 139.039 59.1271 139.625 59.1271C140.005 59.1271 140.393 59.0558 140.789 58.9132C141.201 58.7707 141.589 58.5331 141.954 58.2004C142.334 57.8678 142.666 57.4164 142.952 56.8461L143.403 57.0124C143.229 57.5352 142.952 58.0658 142.571 58.6044C142.207 59.1429 141.724 59.5864 141.122 59.9349C140.52 60.2834 139.784 60.4576 138.912 60.4576C137.914 60.4576 137.012 60.2121 136.204 59.7211C135.396 59.23 134.754 58.5172 134.279 57.5827C133.804 56.6323 133.566 55.476 133.566 54.1137C133.566 52.7832 133.804 51.6268 134.279 50.6448C134.77 49.6468 135.443 48.8786 136.299 48.34C137.154 47.8015 138.128 47.5322 139.221 47.5322ZM156.548 47.746L149.991 59.7686H152.129C152.763 59.7686 153.325 59.6419 153.816 59.3884C154.307 59.135 154.711 58.7152 155.028 58.1292C155.345 57.5431 155.535 56.7669 155.598 55.8007H156.145C156.145 56.862 156.152 57.749 156.168 58.4618C156.184 59.1746 156.208 59.7607 156.24 60.22C155.527 60.1884 154.79 60.1646 154.03 60.1488C153.27 60.1329 152.517 60.125 151.773 60.125C150.965 60.125 150.141 60.1329 149.302 60.1488C148.478 60.1804 147.686 60.2121 146.926 60.2438L153.483 48.2212H151.297C150.616 48.2212 150.03 48.3559 149.539 48.6252C149.048 48.8786 148.66 49.2984 148.375 49.8844C148.106 50.4547 147.931 51.2229 147.852 52.1892H147.33C147.33 51.112 147.322 50.225 147.306 49.528C147.29 48.8311 147.266 48.245 147.235 47.7698C147.931 47.8015 148.66 47.8252 149.42 47.8411C150.181 47.8569 150.941 47.8648 151.701 47.8648C152.493 47.8648 153.301 47.8569 154.125 47.8411C154.964 47.8094 155.772 47.7777 156.548 47.746Z" fill="#FF6A00"/>
</svg>
