<svg width="36" height="35" viewBox="0 0 36 35" fill="none" xmlns="http://www.w3.org/2000/svg">
<rect width="35" height="35" rx="17.5" transform="matrix(0.999999 0 0.00112953 1 0 0)" fill="#FF6A00"/>
<g clip-path="url(#clip0_560_720)">
<path d="M20.5 6H15.5C14.0418 6.00159 12.6438 6.58156 11.6127 7.61267C10.5816 8.64377 10.0016 10.0418 10 11.5L10 24.5C10.0016 25.9582 10.5816 27.3562 11.6127 28.3873C12.6438 29.4184 14.0418 29.9984 15.5 30H20.5C21.9582 29.9984 23.3562 29.4184 24.3873 28.3873C25.4184 27.3562 25.9984 25.9582 26 24.5L26 11.5C25.9984 10.0418 25.4184 8.64377 24.3873 7.61267C23.3562 6.58156 21.9582 6.00159 20.5 6V6ZM15.5 9H20.5C21.163 9 21.7989 9.26339 22.2678 9.73223C22.7366 10.2011 23 10.837 23 11.5L23 24H13L13 11.5C13 10.837 13.2634 10.2011 13.7322 9.73223C14.2011 9.26339 14.837 9 15.5 9V9ZM18 28C17.7348 28 17.4804 27.8946 17.2929 27.7071C17.1054 27.5196 17 27.2652 17 27C17 26.7348 17.1054 26.4804 17.2929 26.2929C17.4804 26.1054 17.7348 26 18 26V26C18.2652 26 18.5196 26.1054 18.7071 26.2929C18.8946 26.4804 19 26.7348 19 27C19 27.2652 18.8946 27.5196 18.7071 27.7071C18.5196 27.8946 18.2652 28 18 28Z" fill="white"/>
</g>
<defs>
<clipPath id="clip0_560_720">
<rect width="24" height="24" fill="white" transform="translate(6 6)"/>
</clipPath>
</defs>
</svg>
