<svg width="26" height="25" viewBox="0 0 26 25" fill="none" xmlns="http://www.w3.org/2000/svg">
<rect width="24.2344" height="24.2344" rx="12.1172" transform="matrix(0.999999 0 0.00112953 1 0.813721 0)" fill="#3A3631"/>
<path d="M19.6789 17.8416C18.8837 17.8226 18.1074 17.8226 17.3123 17.8416C17.1419 17.8416 17.104 17.8037 17.1038 17.6333C17.1022 16.2323 17.1006 14.8123 17.099 13.4112C17.0986 13.0894 17.0793 12.7675 16.9843 12.4646C16.6992 11.4801 15.5628 11.1203 14.7494 11.783C14.3144 12.1238 14.1445 12.5971 14.1451 13.1651C14.1466 14.4904 14.1481 15.8157 14.1496 17.1411C14.1498 17.3115 14.1311 17.4818 14.1502 17.6712C14.1693 17.8226 14.0937 17.8605 13.9611 17.8416C13.147 17.8416 12.3518 17.8416 11.5377 17.8416C11.3862 17.8416 11.3483 17.8037 11.3481 17.6522C11.3657 16.4595 11.3644 15.2667 11.363 14.055C11.3613 12.5782 11.3596 11.1014 11.3391 9.64354C11.3389 9.47314 11.3767 9.43528 11.5282 9.43528C12.3423 9.43528 13.1375 9.43528 13.9516 9.43528C14.1031 9.43528 14.141 9.47314 14.1411 9.62461C14.1415 9.92754 14.1418 10.2305 14.1422 10.5902C14.199 10.5334 14.2179 10.5145 14.2368 10.4955C14.974 9.41635 16.0149 9.11342 17.2458 9.30275C18.6661 9.52994 19.576 10.5145 19.8049 12.0291C19.8621 12.3888 19.8814 12.7486 19.8818 13.1083C19.8835 14.6229 19.8852 16.1187 19.8869 17.6333C19.8871 17.7848 19.8493 17.8416 19.6789 17.8416Z" fill="white"/>
<path d="M9.82893 13.6406C9.83043 14.966 9.83192 16.2913 9.83342 17.6166C9.83361 17.787 9.79581 17.8438 9.62541 17.8438C8.8302 17.8249 8.03503 17.8438 7.23984 17.8438C7.08838 17.8438 7.05047 17.8059 7.0503 17.6545C7.04728 14.9849 7.04424 12.2964 7.04123 9.62683C7.04108 9.4943 7.07888 9.4375 7.23035 9.4375C8.04447 9.4375 8.85859 9.4375 9.67272 9.4375C9.84312 9.4375 9.86211 9.4943 9.86228 9.64576C9.82592 10.9711 9.82741 12.2964 9.82893 13.6406Z" fill="white"/>
<path d="M9.95415 7.2357C9.76568 7.99302 8.98991 8.42848 8.09988 8.27702C7.15306 8.12555 6.62188 7.19783 6.96165 6.28904C7.18821 5.72105 7.73688 5.38025 8.43743 5.39919C9.49766 5.38025 10.1991 6.23224 9.95415 7.2357Z" fill="white"/>
</svg>
