<svg width="25" height="25" viewBox="0 0 25 25" fill="none" xmlns="http://www.w3.org/2000/svg">
<g clip-path="url(#clip0_1326_577)">
<path d="M24.2481 12.1172C24.2405 5.42506 18.8093 0 12.1172 0C5.42505 0 0.00612776 5.42506 0.0136867 12.1172C0.0212457 18.8093 5.45242 24.2344 12.1446 24.2344C18.8367 24.2344 24.2556 18.8093 24.2481 12.1172Z" fill="#45024B"/>
<path d="M9.3144 7.04688C9.78073 7.04688 10.2112 7.08275 10.6059 7.19036C11.0006 7.2621 11.3236 7.40559 11.6107 7.58495C11.8979 7.76431 12.1134 8.01541 12.2573 8.33825C12.4011 8.66109 12.4733 9.05568 12.4738 9.48614C12.4744 9.98834 12.3672 10.4188 12.1165 10.7416C11.9016 11.0645 11.5433 11.3515 11.113 11.5667C11.7231 11.746 12.1898 12.0689 12.4772 12.4993C12.7647 12.9298 12.9446 13.4679 12.9453 14.0777C12.9459 14.5799 12.8388 15.0103 12.6598 15.3691C12.4809 15.7278 12.1943 16.0506 11.8717 16.2659C11.5491 16.4811 11.1547 16.6604 10.7243 16.7681C10.294 16.8757 9.86366 16.9474 9.4332 16.9474H4.62641L4.61523 7.04688H9.3144ZM9.03197 11.0645C9.42655 11.0645 9.74927 10.9569 10.0002 10.7775C10.251 10.5982 10.3583 10.2753 10.3578 9.88072C10.3576 9.66549 10.3215 9.45027 10.2496 9.30678C10.1777 9.16329 10.0699 9.05568 9.92636 8.94806C9.7828 8.87632 9.63923 8.80458 9.45983 8.76871C9.28043 8.73284 9.10107 8.73283 8.88585 8.73283H6.8053L6.80793 11.0645H9.03197ZM9.14436 15.2973C9.35959 15.2973 9.57478 15.2614 9.7541 15.2256C9.93341 15.1897 10.1126 15.118 10.256 15.0103C10.3994 14.9027 10.5069 14.7951 10.6143 14.6158C10.6858 14.4364 10.7573 14.2212 10.757 13.9701C10.7565 13.4679 10.6126 13.1092 10.3253 12.8581C10.0381 12.6428 9.64344 12.5352 9.17711 12.5352H6.80959L6.81271 15.2973H9.14436ZM16.0675 15.2614C16.3548 15.5484 16.7854 15.6919 17.3593 15.6919C17.7539 15.6919 18.1125 15.5843 18.3993 15.4049C18.686 15.1897 18.8651 14.9745 18.9366 14.7592H20.6943C20.4083 15.6202 19.9786 16.23 19.4051 16.6246C18.8315 16.9833 18.1502 17.1985 17.3252 17.1985C16.7512 17.1985 16.2489 17.0909 15.7824 16.9115C15.3158 16.7322 14.9568 16.4811 14.6336 16.1224C14.3104 15.7995 14.0588 15.4049 13.9148 14.9386C13.7349 14.4723 13.6626 13.9701 13.662 13.3961C13.6614 12.8581 13.7326 12.3559 13.9114 11.8895C14.0902 11.4232 14.3409 11.0286 14.6633 10.6699C14.9858 10.3471 15.3801 10.0601 15.8103 9.88072C16.2764 9.70137 16.7426 9.59375 17.3166 9.59375C17.9264 9.59375 18.4646 9.70137 18.9312 9.95247C19.3978 10.2036 19.7569 10.4905 20.0443 10.921C20.3317 11.3156 20.5475 11.7819 20.6915 12.2841C20.7639 12.7863 20.8003 13.2885 20.7651 13.8625H15.5637C15.5644 14.4364 15.7802 14.9745 16.0675 15.2614ZM18.3231 11.4949C18.0718 11.2438 17.677 11.1004 17.2107 11.1004C16.8878 11.1004 16.6368 11.1721 16.4217 11.2797C16.2066 11.3873 16.0633 11.5308 15.9199 11.6743C15.7766 11.8178 15.7051 11.9971 15.6694 12.1765C15.6337 12.3559 15.598 12.4993 15.5982 12.6428H18.8266C18.7543 12.1048 18.5745 11.746 18.3231 11.4949ZM15.1622 7.72843H19.1798L19.1809 8.69696H15.1633L15.1622 7.72843Z" fill="white"/>
</g>
<defs>
<clipPath id="clip0_1326_577">
<rect width="25" height="25" fill="white"/>
</clipPath>
</defs>
</svg>
