<svg width="36" height="35" viewBox="0 0 36 35" fill="none" xmlns="http://www.w3.org/2000/svg">
<rect width="35" height="35" rx="17.5" transform="matrix(0.999999 0 0.00112953 1 0 0)" fill="#FF6A00"/>
<path d="M13.452 10.1689C14.1254 10.1689 14.7472 10.2208 15.3172 10.3762C15.8872 10.4798 16.3537 10.687 16.7685 10.946C17.1832 11.2051 17.4945 11.5677 17.7022 12.034C17.91 12.5002 18.0142 13.0701 18.0149 13.6918C18.0157 14.4171 17.861 15.0388 17.4989 15.505C17.1886 15.9713 16.671 16.3857 16.0497 16.6966C16.9307 16.9556 17.6047 17.4219 18.0198 18.0436C18.435 18.6652 18.6949 19.4423 18.6959 20.323C18.6967 21.0483 18.542 21.67 18.2836 22.1881C18.0251 22.7062 17.6112 23.1724 17.1453 23.4833C16.6794 23.7941 16.1098 24.0531 15.4883 24.2085C14.8668 24.364 14.2452 24.4676 13.6235 24.4676H6.68143L6.66528 10.1689H13.452ZM13.0441 15.9713C13.6139 15.9713 14.08 15.8159 14.4424 15.5568C14.8047 15.2978 14.9596 14.8315 14.959 14.2617C14.9586 13.9508 14.9065 13.64 14.8026 13.4328C14.6988 13.2255 14.5432 13.0701 14.3358 12.9147C14.1284 12.8111 13.9211 12.7075 13.662 12.6557C13.4029 12.6039 13.1439 12.6039 12.833 12.6039H9.82824L9.83204 15.9713H13.0441ZM13.2064 22.0845C13.5172 22.0845 13.828 22.0327 14.087 21.9809C14.346 21.9291 14.6049 21.8254 14.8119 21.67C15.019 21.5146 15.1742 21.3592 15.3293 21.1001C15.4327 20.8411 15.5359 20.5303 15.5355 20.1676C15.5347 19.4423 15.3269 18.9243 14.912 18.5616C14.4972 18.2508 13.9272 18.0954 13.2537 18.0954H9.83444L9.83895 22.0845H13.2064ZM23.205 22.0327C23.6199 22.4471 24.2419 22.6543 25.0708 22.6543C25.6406 22.6543 26.1585 22.4989 26.5727 22.2399C26.9868 21.9291 27.2455 21.6182 27.3487 21.3074H29.8873C29.4742 22.5507 28.8535 23.4314 28.0253 24.0013C27.1969 24.5194 26.213 24.8302 25.0214 24.8302C24.1925 24.8302 23.467 24.6748 22.7933 24.4158C22.1195 24.1567 21.601 23.7941 21.1342 23.276C20.6674 22.8098 20.3041 22.2399 20.0961 21.5664C19.8363 20.8929 19.7319 20.1676 19.7309 19.3387C19.73 18.5616 19.8328 17.8363 20.0911 17.1628C20.3494 16.4894 20.7114 15.9195 21.1771 15.4014C21.6428 14.9352 22.2122 14.5207 22.8336 14.2617C23.5068 14.0026 24.1801 13.8472 25.009 13.8472C25.8897 13.8472 26.667 14.0026 27.3409 14.3653C28.0148 14.7279 28.5333 15.1424 28.9485 15.7641C29.3636 16.3339 29.6752 17.0074 29.8832 17.7327C29.9877 18.458 30.0403 19.1833 29.9894 20.0122H22.4774C22.4784 20.8411 22.7901 21.6182 23.205 22.0327ZM26.4627 16.593C26.0996 16.2303 25.5295 16.0231 24.856 16.0231C24.3898 16.0231 24.0273 16.1267 23.7166 16.2821C23.4059 16.4376 23.1989 16.6448 22.9919 16.852C22.7849 17.0592 22.6816 17.3183 22.6301 17.5773C22.5786 17.8363 22.527 18.0436 22.5273 18.2508H27.1899C27.0854 17.4737 26.8257 16.9556 26.4627 16.593ZM21.8976 11.1533H27.6999L27.7015 12.5521H21.8991L21.8976 11.1533Z" fill="white"/>
</svg>
