<svg width="22" height="22" viewBox="0 0 22 22" fill="none" xmlns="http://www.w3.org/2000/svg">
<path fill-rule="evenodd" clip-rule="evenodd" d="M2.75477 0.360711C2.27172 -0.136247 1.50906 -0.117261 1.05133 0.403117C0.593601 0.923495 0.614131 1.74821 1.09719 2.24517L8.91305 10.286L0.376253 19.0684C-0.106803 19.5654 -0.127316 20.3901 0.330435 20.9105C0.788186 21.4308 1.55086 21.4498 2.03392 20.9528L10.6577 12.0808L19.2997 20.9715C19.7827 21.4685 20.5454 21.4495 21.0031 20.9291C21.4609 20.4087 21.4403 19.584 20.9573 19.0871L12.4024 10.286L20.2181 2.24533C20.7011 1.74838 20.7217 0.923677 20.2639 0.403317C19.8062 -0.117042 19.0435 -0.136013 18.5604 0.360944L10.6577 8.49109L2.75477 0.360711Z" fill="#050215"/>
</svg>
