<svg width="22" height="22" viewBox="0 0 22 22" fill="none" xmlns="http://www.w3.org/2000/svg">
<path d="M1.05177 0.403232C1.50947 -0.117007 2.27186 -0.136532 2.75489 0.360263L10.6572 8.49015L18.5606 0.36124L18.6543 0.274326C19.1378 -0.131293 19.8345 -0.0845541 20.2637 0.403232C20.6929 0.891149 20.7015 1.64636 20.3027 2.14835L20.2178 2.24503L12.4024 10.2851L20.957 19.0868L21.042 19.1835C21.4408 19.6855 21.432 20.4407 21.0029 20.9286C20.5738 21.4165 19.8771 21.4639 19.3936 21.0585L19.2998 20.9716L10.6572 12.08L2.03419 20.953C1.55113 21.45 0.787834 21.4304 0.330088 20.9101C-0.127316 20.3897 -0.106873 19.5651 0.375986 19.0683L8.9131 10.2851L1.09767 2.24503C0.61461 1.74807 0.594038 0.92361 1.05177 0.403232Z" fill="#FA5705"/>
</svg>
