<svg width="37" height="35" viewBox="0 0 37 35" fill="none" xmlns="http://www.w3.org/2000/svg">
<g clip-path="url(#clip0_1004_519)">
<path d="M35.5197 17.5C35.5088 7.83502 27.665 0 18 0C8.33501 0 0.50885 7.83502 0.519767 17.5C0.530684 27.165 8.37454 35 18.0395 35C27.7045 35 35.5306 27.165 35.5197 17.5Z" fill="#FF6A00"/>
<path d="M12.164 11.0469C13.0264 11.0469 13.732 11.1776 14.2808 11.4389C14.8426 11.6872 15.3392 11.9812 15.7704 12.3209C16.0317 12.5169 16.2277 12.543 16.3584 12.3993C16.5021 12.2425 16.6001 11.8832 16.6524 11.3213H17.1032C17.077 11.8309 17.0574 12.4516 17.0444 13.1833C17.0313 13.902 17.0248 14.8624 17.0248 16.0645H16.574C16.5086 15.4634 16.4237 14.9538 16.3192 14.5357C16.2146 14.1045 16.0709 13.7256 15.888 13.3989C15.705 13.0722 15.4437 12.7782 15.104 12.5169C14.7773 12.1902 14.3984 11.9485 13.9672 11.7917C13.536 11.6349 13.0852 11.5565 12.6148 11.5565C11.9092 11.5565 11.3081 11.746 10.8116 12.1249C10.315 12.4908 9.91 12.9938 9.5964 13.6341C9.29582 14.2744 9.07371 14.9996 8.93 15.8097C8.78622 16.6068 8.7144 17.4365 8.7144 18.2989C8.7144 19.1744 8.78622 20.0172 8.93 20.8273C9.0868 21.6244 9.322 22.3365 9.6356 22.9637C9.96222 23.5909 10.3804 24.0874 10.89 24.4533C11.3996 24.8192 12.0006 25.0021 12.6932 25.0021C13.1244 25.0021 13.5556 24.9237 13.9868 24.7669C14.431 24.597 14.81 24.3553 15.1236 24.0417C15.6332 23.6497 15.9794 23.1662 16.1624 22.5913C16.3453 22.0033 16.4825 21.2258 16.574 20.2589H17.0248C17.0248 21.5002 17.0313 22.5064 17.0444 23.2773C17.0574 24.0352 17.077 24.6754 17.1032 25.1981H16.6524C16.6001 24.6362 16.5086 24.2834 16.378 24.1397C16.2604 23.996 16.0578 24.0156 15.7704 24.1985C15.2869 24.5382 14.7708 24.8388 14.222 25.1001C13.6862 25.3484 12.9937 25.4725 12.1444 25.4725C10.7593 25.4725 9.54411 25.1916 8.4988 24.6297C7.46652 24.0678 6.66292 23.2577 6.08799 22.1993C5.51305 21.1409 5.22559 19.8669 5.22559 18.3773C5.22559 16.9138 5.51959 15.6333 6.10759 14.5357C6.70865 13.4381 7.52531 12.5822 8.5576 11.9681C9.60291 11.354 10.805 11.0469 12.164 11.0469ZM31.5799 11.3213V11.7133C31.2925 11.8178 30.9854 12.0465 30.6587 12.3993C30.3451 12.7521 30.0511 13.3009 29.7767 14.0457L25.6411 25.2373C25.5366 25.2242 25.4255 25.2177 25.3079 25.2177C25.1903 25.2177 25.0727 25.2177 24.9551 25.2177C24.8506 25.2177 24.7395 25.2177 24.6219 25.2177C24.5043 25.2177 24.3933 25.2242 24.2887 25.2373L19.2907 12.9677C19.1078 12.4973 18.9053 12.1772 18.6831 12.0073C18.461 11.8244 18.2519 11.7264 18.0559 11.7133V11.3213C18.4479 11.3344 18.9053 11.3474 19.4279 11.3605C19.9637 11.3736 20.4994 11.3801 21.0351 11.3801C21.6362 11.3801 22.1981 11.3736 22.7207 11.3605C23.2565 11.3474 23.6877 11.3344 24.0143 11.3213V11.7133C23.5962 11.7264 23.2695 11.7786 23.0343 11.8701C22.7991 11.9485 22.6685 12.1053 22.6423 12.3405C22.6162 12.5626 22.6946 12.9024 22.8775 13.3597L26.4447 22.4345L26.0331 22.9245L28.7379 15.6333C29.0907 14.6533 29.2737 13.8824 29.2867 13.3205C29.2998 12.7586 29.1626 12.3536 28.8751 12.1053C28.5877 11.857 28.1761 11.7264 27.6403 11.7133V11.3213C28.0846 11.3344 28.5027 11.3474 28.8947 11.3605C29.2867 11.3736 29.6853 11.3801 30.0903 11.3801C30.3778 11.3801 30.6457 11.3736 30.8939 11.3605C31.1553 11.3474 31.3839 11.3344 31.5799 11.3213Z" fill="white"/>
</g>
<defs>
<clipPath id="clip0_1004_519">
<rect width="35.7" height="35" fill="white" transform="translate(0.5)"/>
</clipPath>
</defs>
</svg>
