<svg width="63" height="63" viewBox="0 0 63 63" fill="none" xmlns="http://www.w3.org/2000/svg">
<path d="M57.2644 13.7192H7.46729V15.4055H57.2644V13.7192Z" fill="#FA4E05"/>
<path d="M32.4446 28.1765L31.0669 29.54L46.2453 44.5623L47.623 43.1988L32.4446 28.1765Z" fill="#FA4E05"/>
<path d="M28.6754 15.9316H26.4824V43.7128H28.6754V15.9316Z" fill="#FA4E05"/>
<path d="M57.7284 13.3024L4.45459 43.1052L5.29301 44.5733L58.5668 14.7705L57.7284 13.3024Z" fill="#FA4E05"/>
<path d="M28.722 42.3145C28.6292 42.3437 28.5407 42.3729 28.4479 42.4063C28.1485 42.5065 27.9165 42.8278 28.0219 43.1492C28.1189 43.4456 28.4479 43.6793 28.7726 43.5708C28.8654 43.5416 28.954 43.5124 29.0467 43.479C29.3462 43.3788 29.5781 43.0574 29.4727 42.736C29.3715 42.4355 29.0425 42.2059 28.722 42.3145Z" fill="#FA4E05"/>
<path d="M61.3414 42.6343L4.54102 43.5676L4.57336 45.4957L61.3738 44.5625L61.3414 42.6343Z" fill="#FA4E05"/>
<path d="M32.6987 43.9297C24.3149 43.9297 17.4956 37.2849 17.4956 29.1126C17.4956 20.9402 24.3149 14.2954 32.6987 14.2954C41.0826 14.2954 47.9018 20.9402 47.9018 29.1126C47.9018 37.2849 41.0784 43.9297 32.6987 43.9297ZM32.6987 15.7437C25.1246 15.7437 18.959 21.7415 18.959 29.1126C18.959 36.4836 25.1246 42.4814 32.6987 42.4814C40.2729 42.4814 46.4385 36.4836 46.4385 29.1126C46.4385 21.7415 40.2729 15.7437 32.6987 15.7437Z" fill="#FA4E05"/>
<path d="M32.6989 63C15.172 63 0.913574 48.8674 0.913574 31.5C0.913574 14.1326 15.172 0 32.6989 0C38.9614 0 45.3337 1.96171 50.6474 5.52617C52.3385 6.66145 53.979 8.03882 55.5183 9.61654C56.969 11.1066 58.1456 12.7344 59.1072 14.6001L56.7202 15.8063C55.8768 14.1785 54.852 12.7553 53.5868 11.4572C52.1782 10.0089 50.6811 8.75255 49.1418 7.72161C44.2667 4.45349 38.4259 2.65039 32.6946 2.65039C16.6481 2.65039 3.59152 15.5935 3.59152 31.5C3.59152 47.4065 16.6481 60.3496 32.6946 60.3496C43.204 60.3496 52.912 54.7024 58.036 45.6159C58.0824 45.5366 58.4957 44.7937 58.8626 44.0466L58.9553 43.8546C59.1831 43.3913 59.4192 42.9113 59.4066 42.6859L62.0803 42.5189C62.1393 43.4414 61.7429 44.2427 61.3634 45.0149L61.2748 45.1986C60.8868 45.9958 60.4609 46.7596 60.3765 46.9057C57.6649 51.7223 53.7218 55.7542 48.9816 58.5674C44.098 61.4682 38.468 63 32.6989 63Z" fill="#FA4E05"/>
</svg>
