<svg width="57" height="60" viewBox="0 0 57 60" fill="none" xmlns="http://www.w3.org/2000/svg">
<path d="M54.75 17.15C50.1399 8.01478 40.6734 1.75 29.7439 1.75C14.2833 1.75 1.75 14.286 1.75 29.75C1.75 45.214 14.2833 57.75 29.7439 57.75C40.1056 57.75 49.1524 52.1192 53.9927 43.75C54.1815 43.4235 54.25 43.25 54.25 42.75" stroke="#FA5705" stroke-width="3.5"/>
<circle cx="29.75" cy="29.75" r="13.9286" stroke="#FA5705" stroke-width="2.14286"/>
<rect x="6.75" y="14.75" width="46" height="2" fill="#FA5705"/>
<rect x="25.75" y="44.75" width="30" height="2" transform="rotate(-90 25.75 44.75)" fill="#FA5705"/>
<rect x="6.75" y="42.416" width="55.9661" height="2" transform="rotate(-29.6263 6.75 42.416)" fill="#FA5705"/>
<rect x="32.5957" y="29.4844" width="18.0248" height="2" transform="rotate(47.5091 32.5957 29.4844)" fill="#FA5705"/>
<rect x="6.75" y="42.75" width="48" height="2" fill="#FA5705"/>
</svg>
