<svg width="25" height="25" viewBox="0 0 25 25" fill="none" xmlns="http://www.w3.org/2000/svg">
<rect width="24.2344" height="24.2344" rx="12.1172" transform="matrix(0.999999 0 0.00112953 1 0.406738 0)" fill="#3A3631"/>
<path fill-rule="evenodd" clip-rule="evenodd" d="M16.2983 23.643C15.1186 24.0269 13.8592 24.2344 12.5515 24.2344C11.2429 24.2344 9.98232 24.0266 8.80097 23.6422C9.34656 23.7076 9.54773 23.3525 9.54738 23.0458C9.54723 22.9123 9.54469 22.6768 9.54129 22.3618C9.53735 21.9974 9.53226 21.5264 9.52839 20.9837C6.15837 21.7165 5.44458 19.3581 5.44458 19.3581C4.89242 17.9577 4.09757 17.5848 4.09757 17.5848C2.99632 16.8322 4.18004 16.8475 4.18004 16.8475C5.39564 16.9331 6.0369 18.0971 6.0369 18.0971C7.12045 19.9501 8.87457 19.4151 9.5649 19.1043C9.67382 18.3208 9.98675 17.7863 10.3325 17.4833C7.64139 17.1772 4.8116 16.1373 4.80636 11.491C4.80486 10.167 5.27545 9.08488 6.04999 8.2368C5.92469 7.92995 5.50753 6.69764 6.16451 5.02808C6.16451 5.02808 7.18199 4.70217 9.49814 6.27096C10.4649 6.00185 11.5008 5.86786 12.5315 5.86239C13.5607 5.86767 14.5977 6.00185 15.5658 6.27096C17.8769 4.70217 18.8929 5.02808 18.8929 5.02808C19.5559 6.69764 19.1415 7.92995 19.0169 8.2368C19.7949 9.08488 20.2649 10.167 20.2664 11.491C20.2716 16.1487 17.4396 17.1741 14.7409 17.4742C15.176 17.8486 15.5646 18.5882 15.5659 19.7197C15.5671 20.8037 15.5614 21.7473 15.5576 22.3726C15.5557 22.6824 15.5543 22.9141 15.5545 23.046C15.5548 23.3541 15.7519 23.71 16.2983 23.643Z" fill="white"/>
</svg>
