<svg width="36" height="35" viewBox="0 0 36 35" fill="none" xmlns="http://www.w3.org/2000/svg">
<rect width="35" height="35" rx="17.5" transform="matrix(0.999999 0 0.00112953 1 0 0)" fill="#FF6A00"/>
<path fill-rule="evenodd" clip-rule="evenodd" d="M22.9507 34.1455C21.2468 34.6999 19.4281 34.9996 17.5395 34.9996C15.6495 34.9996 13.8289 34.6995 12.1228 34.1444C12.9108 34.2388 13.2013 33.7259 13.2008 33.283C13.2006 33.0902 13.1969 32.7501 13.192 32.2952C13.1863 31.7688 13.1789 31.0886 13.1734 30.3049C8.30628 31.3632 7.2754 27.9571 7.2754 27.9571C6.47796 25.9346 5.33001 25.396 5.33001 25.396C3.73956 24.3091 5.44912 24.3312 5.44912 24.3312C7.20473 24.4549 8.13084 26.136 8.13084 26.136C9.69574 28.8121 12.2291 28.0394 13.2261 27.5906C13.3834 26.4589 13.8353 25.6871 14.3347 25.2494C10.4481 24.8073 6.36124 23.3056 6.35366 16.5952C6.3515 14.683 7.03114 13.1202 8.14976 11.8954C7.96879 11.4522 7.36631 9.67248 8.31515 7.26126C8.31515 7.26126 9.78462 6.79057 13.1297 9.05625C14.526 8.6676 16.022 8.47409 17.5106 8.46619C18.997 8.47382 20.4946 8.6676 21.8928 9.05625C25.2306 6.79057 26.6978 7.26126 26.6978 7.26126C27.6554 9.67248 27.0569 11.4522 26.8769 11.8954C28.0005 13.1202 28.6793 14.683 28.6815 16.5952C28.6891 23.3219 24.599 24.8029 20.7014 25.2363C21.3298 25.777 21.891 26.8451 21.8929 28.4793C21.8946 30.0448 21.8864 31.4076 21.8809 32.3107C21.8782 32.7582 21.8762 33.0928 21.8764 33.2832C21.8769 33.7282 22.1616 34.2422 22.9507 34.1455Z" fill="white"/>
</svg>
