<svg width="25" height="25" viewBox="0 0 25 25" fill="none" xmlns="http://www.w3.org/2000/svg">
<g clip-path="url(#clip0_1326_574)">
<path d="M24.6543 12.1172C24.6468 5.42506 19.2156 0 12.5234 0C5.8313 0 0.412378 5.42506 0.419937 12.1172C0.427496 18.8093 5.85867 24.2344 12.5508 24.2344C19.2429 24.2344 24.6619 18.8093 24.6543 12.1172Z" fill="#45024B"/>
<path fill-rule="evenodd" clip-rule="evenodd" d="M16.2986 23.643C15.1189 24.0269 13.8595 24.2344 12.5518 24.2344C11.2432 24.2344 9.9826 24.0266 8.80125 23.6422C9.34684 23.7076 9.54801 23.3525 9.54766 23.0458C9.54751 22.9123 9.54497 22.6768 9.54157 22.3618C9.53763 21.9974 9.53254 21.5264 9.52867 20.9837C6.15865 21.7165 5.44486 19.3581 5.44486 19.3581C4.8927 17.9577 4.09785 17.5848 4.09785 17.5848C2.9966 16.8322 4.18032 16.8475 4.18032 16.8475C5.39592 16.9331 6.03718 18.0971 6.03718 18.0971C7.12073 19.9501 8.87485 19.4151 9.56518 19.1043C9.6741 18.3208 9.98703 17.7863 10.3328 17.4833C7.64167 17.1772 4.81188 16.1373 4.80664 11.491C4.80514 10.167 5.27573 9.08488 6.05027 8.2368C5.92497 7.92995 5.50781 6.69764 6.16479 5.02808C6.16479 5.02808 7.18227 4.70217 9.49842 6.27096C10.4652 6.00185 11.5011 5.86786 12.5318 5.86239C13.561 5.86767 14.598 6.00185 15.5661 6.27096C17.8772 4.70217 18.8932 5.02808 18.8932 5.02808C19.5562 6.69764 19.1418 7.92995 19.0172 8.2368C19.7952 9.08488 20.2652 10.167 20.2667 11.491C20.2719 16.1487 17.4399 17.1741 14.7412 17.4742C15.1763 17.8486 15.5649 18.5882 15.5662 19.7197C15.5674 20.8037 15.5617 21.7473 15.5579 22.3726C15.556 22.6824 15.5546 22.9141 15.5548 23.046C15.5551 23.3541 15.7522 23.71 16.2986 23.643Z" fill="white"/>
</g>
<defs>
<clipPath id="clip0_1326_574">
<rect width="25" height="25" fill="white"/>
</clipPath>
</defs>
</svg>
