<svg width="26" height="25" viewBox="0 0 26 25" fill="none" xmlns="http://www.w3.org/2000/svg">
<g clip-path="url(#clip0_1326_569)">
<path d="M25.0625 12.1172C25.055 5.42506 19.6238 0 12.9316 0C6.2395 0 0.820581 5.42506 0.82814 12.1172C0.835699 18.8093 6.26688 24.2344 12.959 24.2344C19.6512 24.2344 25.0701 18.8093 25.0625 12.1172Z" fill="#45024B"/>
<path d="M19.6796 17.8416C18.8844 17.8226 18.1081 17.8226 17.313 17.8416C17.1426 17.8416 17.1047 17.8037 17.1045 17.6333C17.1029 16.2323 17.1013 14.8123 17.0997 13.4112C17.0993 13.0894 17.08 12.7675 16.985 12.4646C16.6999 11.4801 15.5635 11.1203 14.7501 11.783C14.3151 12.1238 14.1452 12.5971 14.1458 13.1651C14.1473 14.4904 14.1488 15.8157 14.1503 17.1411C14.1505 17.3115 14.1318 17.4818 14.1509 17.6712C14.17 17.8226 14.0944 17.8605 13.9618 17.8416C13.1477 17.8416 12.3525 17.8416 11.5384 17.8416C11.3869 17.8416 11.349 17.8037 11.3488 17.6522C11.3664 16.4595 11.3651 15.2667 11.3637 14.055C11.362 12.5782 11.3603 11.1014 11.3398 9.64354C11.3396 9.47314 11.3774 9.43528 11.5289 9.43528C12.343 9.43528 13.1382 9.43528 13.9523 9.43528C14.1038 9.43528 14.1417 9.47314 14.1418 9.62461C14.1422 9.92754 14.1425 10.2305 14.1429 10.5902C14.1997 10.5334 14.2186 10.5145 14.2375 10.4955C14.9747 9.41635 16.0156 9.11342 17.2465 9.30275C18.6668 9.52994 19.5767 10.5145 19.8056 12.0291C19.8628 12.3888 19.8821 12.7486 19.8825 13.1083C19.8842 14.6229 19.8859 16.1187 19.8876 17.6333C19.8878 17.7848 19.85 17.8416 19.6796 17.8416Z" fill="white"/>
<path d="M9.82872 13.6406C9.83022 14.966 9.83171 16.2913 9.83321 17.6166C9.8334 17.787 9.7956 17.8438 9.6252 17.8438C8.82999 17.8249 8.03482 17.8438 7.23963 17.8438C7.08817 17.8438 7.05026 17.8059 7.05009 17.6545C7.04707 14.9849 7.04403 12.2964 7.04102 9.62683C7.04087 9.4943 7.07867 9.4375 7.23014 9.4375C8.04426 9.4375 8.85838 9.4375 9.67251 9.4375C9.84291 9.4375 9.8619 9.4943 9.86207 9.64576C9.82571 10.9711 9.8272 12.2964 9.82872 13.6406Z" fill="white"/>
<path d="M9.95495 7.2357C9.76648 7.99302 8.99071 8.42848 8.10068 8.27702C7.15386 8.12555 6.62268 7.19783 6.96245 6.28904C7.18901 5.72105 7.73768 5.38025 8.43823 5.39919C9.49846 5.38025 10.1999 6.23224 9.95495 7.2357Z" fill="white"/>
</g>
<defs>
<clipPath id="clip0_1326_569">
<rect width="26" height="25" fill="white"/>
</clipPath>
</defs>
</svg>
