<svg width="32" height="32" viewBox="0 0 32 32" fill="none" xmlns="http://www.w3.org/2000/svg">
<path fill-rule="evenodd" clip-rule="evenodd" d="M25.7779 7.8433H6.22238C5.98664 7.8433 5.76054 7.71108 5.59385 7.47574C5.42715 7.2404 5.3335 6.92122 5.3335 6.5884C5.3335 6.25558 5.42715 5.93639 5.59385 5.70105C5.76054 5.46571 5.98664 5.3335 6.22238 5.3335H25.7779C26.0137 5.3335 26.2398 5.46571 26.4065 5.70105C26.5732 5.93639 26.6668 6.25558 26.6668 6.5884C26.6668 6.92122 26.5732 7.2404 26.4065 7.47574C26.2398 7.71108 26.0137 7.8433 25.7779 7.8433ZM6.66683 11.608H25.3335C25.6871 11.608 26.0263 11.7402 26.2763 11.9756C26.5264 12.2109 26.6668 12.5301 26.6668 12.8629C26.6668 13.1957 26.5264 13.5149 26.2763 13.7503C26.0263 13.9856 25.6871 14.1178 25.3335 14.1178H6.66683C6.31321 14.1178 5.97407 13.9856 5.72402 13.7503C5.47397 13.5149 5.3335 13.1957 5.3335 12.8629C5.3335 12.5301 5.47397 12.2109 5.72402 11.9756C5.97407 11.7402 6.31321 11.608 6.66683 11.608ZM25.3335 24.157H6.66683C6.31321 24.157 5.97407 24.2892 5.72402 24.5246C5.47397 24.7599 5.3335 25.0791 5.3335 25.4119C5.3335 25.7447 5.47397 26.0639 5.72402 26.2993C5.97407 26.5346 6.31321 26.6668 6.66683 26.6668H25.3335C25.6871 26.6668 26.0263 26.5346 26.2763 26.2993C26.5264 26.0639 26.6668 25.7447 26.6668 25.4119C26.6668 25.0791 26.5264 24.7599 26.2763 24.5246C26.0263 24.2892 25.6871 24.157 25.3335 24.157ZM6.22238 17.8825H25.7779C26.0137 17.8825 26.2398 18.0147 26.4065 18.2501C26.5732 18.4854 26.6668 18.8046 26.6668 19.1374C26.6668 19.4702 26.5732 19.7894 26.4065 20.0248C26.2398 20.2601 26.0137 20.3923 25.7779 20.3923H6.22238C5.98664 20.3923 5.76054 20.2601 5.59385 20.0248C5.42715 19.7894 5.3335 19.4702 5.3335 19.1374C5.3335 18.8046 5.42715 18.4854 5.59385 18.2501C5.76054 18.0147 5.98664 17.8825 6.22238 17.8825Z" fill="#050215"/>
</svg>
