<svg width="20" height="20" viewBox="0 0 20 20" fill="none" xmlns="http://www.w3.org/2000/svg">
<path fill-rule="evenodd" clip-rule="evenodd" d="M19.1667 2.35294H0.833334C0.61232 2.35294 0.400359 2.22899 0.244078 2.00836C0.087798 1.78773 0 1.48849 0 1.17647C0 0.86445 0.087798 0.56521 0.244078 0.34458C0.400359 0.123949 0.61232 0 0.833334 0H19.1667C19.3877 0 19.5996 0.123949 19.7559 0.34458C19.9122 0.56521 20 0.86445 20 1.17647C20 1.48849 19.9122 1.78773 19.7559 2.00836C19.5996 2.22899 19.3877 2.35294 19.1667 2.35294ZM1.25 5.88235H18.75C19.0815 5.88235 19.3995 6.0063 19.6339 6.22693C19.8683 6.44756 20 6.7468 20 7.05882C20 7.37084 19.8683 7.67008 19.6339 7.89071C19.3995 8.11134 19.0815 8.23529 18.75 8.23529H1.25C0.918479 8.23529 0.600537 8.11134 0.366117 7.89071C0.131696 7.67008 0 7.37084 0 7.05882C0 6.7468 0.131696 6.44756 0.366117 6.22693C0.600537 6.0063 0.918479 5.88235 1.25 5.88235ZM18.75 17.6471H1.25C0.918479 17.6471 0.600537 17.771 0.366117 17.9916C0.131696 18.2123 0 18.5115 0 18.8235C0 19.1355 0.131696 19.4348 0.366117 19.6554C0.600537 19.8761 0.918479 20 1.25 20H18.75C19.0815 20 19.3995 19.8761 19.6339 19.6554C19.8683 19.4348 20 19.1355 20 18.8235C20 18.5115 19.8683 18.2123 19.6339 17.9916C19.3995 17.771 19.0815 17.6471 18.75 17.6471ZM0.833333 11.7647H19.1667C19.3877 11.7647 19.5996 11.8887 19.7559 12.1093C19.9122 12.3299 20 12.6292 20 12.9412C20 13.2532 19.9122 13.5524 19.7559 13.7731C19.5996 13.9937 19.3877 14.1177 19.1667 14.1177H0.833333C0.61232 14.1177 0.400358 13.9937 0.244078 13.7731C0.0877974 13.5524 0 13.2532 0 12.9412C0 12.6292 0.0877974 12.3299 0.244078 12.1093C0.400358 11.8887 0.61232 11.7647 0.833333 11.7647Z" fill="#050215"/>
</svg>
