<svg width="20" height="20" viewBox="0 0 20 20" fill="none" xmlns="http://www.w3.org/2000/svg">
<path d="M18.75 17.6475C19.0814 17.6475 19.3994 17.7707 19.6338 17.9912C19.8681 18.2118 19.9999 18.5113 20 18.8232C20 19.1353 19.8682 19.4346 19.6338 19.6553C19.3994 19.8759 19.0815 20 18.75 20H1.25C0.918479 20 0.600631 19.8759 0.366211 19.6553C0.131805 19.4346 0 19.1353 0 18.8232C8.07289e-05 18.5113 0.131862 18.2118 0.366211 17.9912C0.600606 17.7707 0.918603 17.6475 1.25 17.6475H18.75ZM19.167 11.7646C19.3879 11.7648 19.5997 11.8889 19.7559 12.1094C19.9121 12.33 20 12.6294 20 12.9414C20 13.2533 19.9121 13.5529 19.7559 13.7734C19.5997 13.9938 19.3878 14.1171 19.167 14.1172H0.833008C0.612201 14.1171 0.400326 13.9938 0.244141 13.7734C0.0878976 13.5529 4.18739e-05 13.2533 0 12.9414C0 12.6294 0.0878728 12.33 0.244141 12.1094C0.400344 11.8889 0.612111 11.7648 0.833008 11.7646H19.167ZM18.75 5.88281C19.0814 5.88281 19.3994 6.00607 19.6338 6.22656C19.8682 6.44714 19.9999 6.74666 20 7.05859C20 7.37061 19.8682 7.66999 19.6338 7.89062C19.3994 8.11125 19.0815 8.23535 18.75 8.23535H1.25C0.918482 8.23535 0.600631 8.11125 0.366211 7.89062C0.13179 7.66999 0 7.37061 0 7.05859C6.46217e-05 6.74666 0.131848 6.44714 0.366211 6.22656C0.600609 6.00607 0.91859 5.88281 1.25 5.88281H18.75ZM19.167 0C19.3879 0.00012159 19.5997 0.124204 19.7559 0.344727C19.9121 0.565351 20 0.864771 20 1.17676C19.9999 1.48867 19.9121 1.78823 19.7559 2.00879C19.5997 2.22911 19.3878 2.35242 19.167 2.35254H0.833008C0.612218 2.35242 0.400322 2.22911 0.244141 2.00879C0.0879086 1.78823 5.42781e-05 1.48867 0 1.17676C0 0.864771 0.0878906 0.565351 0.244141 0.344727C0.400344 0.124204 0.612112 0.000121857 0.833008 0H19.167Z" fill="#FA5705"/>
</svg>
