<svg width="145" height="62" viewBox="0 0 145 62" fill="none" xmlns="http://www.w3.org/2000/svg">
<path d="M72.2246 45.5254V32.5254H74.6596V38.7282L80.6659 32.5254H83.5879L78.2715 37.8368L83.9938 45.5254H81.0312L76.6482 39.3782L74.6596 41.3468V45.5254H72.2246Z" fill="#FA5705"/>
<path d="M89.8784 45.5259C88.9605 45.5259 88.1307 45.3577 87.3888 45.0213C86.6469 44.6736 86.056 44.1634 85.6159 43.4905C85.1884 42.8064 84.9746 41.9653 84.9746 40.9672V40.6308C84.9746 39.6887 85.1884 38.8925 85.6159 38.242C86.056 37.5804 86.6469 37.0813 87.3888 36.7449C88.1307 36.4085 88.9605 36.2402 89.8784 36.2402C90.8089 36.2402 91.6388 36.4085 92.3681 36.7449C93.1099 37.0813 93.6946 37.5804 94.1221 38.242C94.5622 38.8925 94.7822 39.6887 94.7822 40.6308V40.9672C94.7822 41.9653 94.5622 42.8064 94.1221 43.4905C93.6946 44.1634 93.1099 44.6736 92.3681 45.0213C91.6388 45.3577 90.8089 45.5259 89.8784 45.5259ZM89.8784 43.911C90.3562 43.911 90.8089 43.8101 91.2364 43.6082C91.6639 43.4064 92.0097 43.0924 92.2738 42.6662C92.5378 42.2288 92.6698 41.6625 92.6698 40.9672V40.6308C92.6698 39.9915 92.5378 39.47 92.2738 39.0663C92.0097 38.6514 91.6639 38.3486 91.2364 38.1579C90.8089 37.9561 90.3562 37.8551 89.8784 37.8551C89.4006 37.8551 88.948 37.9561 88.5204 38.1579C88.0929 38.3486 87.7472 38.6514 87.4831 39.0663C87.219 39.47 87.087 39.9915 87.087 40.6308V40.9672C87.087 41.6625 87.219 42.2288 87.4831 42.6662C87.7472 43.0924 88.0929 43.4064 88.5204 43.6082C88.948 43.8101 89.4006 43.911 89.8784 43.911Z" fill="#FA5705"/>
<path d="M101.55 45.5254C100.988 45.5254 100.497 45.4701 100.079 45.3594C99.6734 45.2488 99.3399 45.0705 99.0784 44.8247C98.8168 44.5665 98.6207 44.2346 98.4899 43.8289C98.3722 43.411 98.3134 42.907 98.3134 42.3169V39.5325L96.7441 40.3807V38.6474L98.3134 37.7991V32.5254H100.471V36.6374L102.629 35.4573V37.1906L100.471 38.3708V42.1694C100.471 42.7717 100.576 43.1897 100.785 43.4233C100.994 43.6445 101.38 43.7552 101.942 43.7552C102.086 43.7552 102.21 43.7552 102.315 43.7552C102.419 43.7429 102.524 43.7306 102.629 43.7183V45.4701C102.563 45.4824 102.459 45.4947 102.315 45.507C102.184 45.5192 102.047 45.5254 101.903 45.5254C101.772 45.5254 101.654 45.5254 101.55 45.5254Z" fill="#FA5705"/>
<path d="M109.187 45.5259C108.317 45.5259 107.532 45.3577 106.834 45.0213C106.135 44.6849 105.583 44.1802 105.179 43.5073C104.786 42.8344 104.59 41.9877 104.59 40.9672V40.6308C104.59 39.6663 104.799 38.8589 105.215 38.2084C105.644 37.558 106.208 37.0701 106.907 36.7449C107.606 36.4085 108.366 36.2402 109.187 36.2402C110.046 36.2402 110.769 36.3748 111.357 36.644C111.958 36.9131 112.424 37.2776 112.755 37.7374C113.098 38.1972 113.319 38.7131 113.417 39.285H111.357C111.235 38.8701 111.014 38.528 110.695 38.2589C110.377 37.9897 109.874 37.8551 109.187 37.8551C108.734 37.8551 108.311 37.9505 107.919 38.1411C107.539 38.3318 107.232 38.6346 106.999 39.0495C106.766 39.4532 106.65 39.9803 106.65 40.6308V40.9672C106.65 41.6737 106.766 42.2457 106.999 42.683C107.232 43.1092 107.539 43.4232 107.919 43.6251C108.311 43.8157 108.734 43.911 109.187 43.911C109.764 43.911 110.229 43.7933 110.585 43.5578C110.941 43.3223 111.198 42.9634 111.357 42.4812H113.417C113.294 43.1092 113.037 43.6531 112.645 44.1129C112.265 44.5615 111.78 44.9091 111.192 45.1559C110.603 45.4026 109.935 45.5259 109.187 45.5259Z" fill="#FA5705"/>
<path d="M115.378 45.5259V44.0543L120.692 37.8871H115.557V36.2402H123.046V37.7119L117.732 43.879H123.225V45.5259H115.378Z" fill="#FA5705"/>
<path d="M72.2246 28.5254V15.5254H81.124V17.4399H74.4968V20.8272H80.5559V22.7417H74.4968V26.4971H81.124V28.5254H72.2246Z" fill="#FA5705"/>
<path d="M86.6631 28.5037C85.9435 28.5037 85.3503 28.4055 84.8832 28.2091C84.4288 28.0005 84.0879 27.663 83.8607 27.1966C83.6461 26.718 83.5388 26.086 83.5388 25.3005V15.5254H85.6217V25.1532C85.6217 25.7546 85.7226 26.1719 85.9246 26.405C86.1266 26.626 86.499 26.7364 87.0418 26.7364C87.1806 26.7364 87.3005 26.7364 87.4015 26.7364C87.5025 26.7241 87.6035 26.7119 87.7045 26.6996V28.4484C87.6414 28.4607 87.5404 28.473 87.4015 28.4853C87.2753 28.4975 87.1428 28.5037 87.0039 28.5037C86.8777 28.5037 86.7641 28.5037 86.6631 28.5037Z" fill="#FA5705"/>
<path d="M89.7102 28.5254V26.8229L95.0707 20.667H89.8901V19.0231H97.4451V20.4921L92.0846 26.648H97.625V28.5254H89.7102ZM93.6676 17.9738C93.2958 17.9738 92.99 17.863 92.7502 17.6415C92.5223 17.4083 92.4084 17.111 92.4084 16.7496C92.4084 16.3882 92.5223 16.0967 92.7502 15.8752C92.99 15.642 93.2958 15.5254 93.6676 15.5254C94.0393 15.5254 94.3391 15.642 94.567 15.8752C94.8068 16.0967 94.9268 16.3882 94.9268 16.7496C94.9268 17.111 94.8068 17.4083 94.567 17.6415C94.3391 17.863 94.0393 17.9738 93.6676 17.9738Z" fill="#FA5705"/>
<path d="M105.336 28.6141C104.503 28.6141 103.783 28.43 103.177 28.0618C102.584 27.6937 102.167 27.2641 101.927 26.7732V28.5254H99.9961V15.5254H102.079V20.2013C102.395 19.6981 102.824 19.2808 103.367 18.9494C103.922 18.6181 104.578 18.4524 105.336 18.4524C106.636 18.4524 107.665 18.8513 108.422 19.649C109.18 20.4467 109.558 21.6494 109.558 23.2571V23.6253C109.558 24.7298 109.381 25.6564 109.028 26.405C108.675 27.1414 108.182 27.6937 107.551 28.0618C106.92 28.43 106.181 28.6141 105.336 28.6141ZM104.843 26.8469C105.613 26.8469 106.238 26.583 106.718 26.0553C107.198 25.5276 107.437 24.7176 107.437 23.6253V23.2571C107.437 22.2262 107.204 21.4653 106.737 20.9744C106.27 20.4712 105.639 20.2197 104.843 20.2197C104.364 20.2197 103.909 20.3178 103.48 20.5142C103.064 20.7106 102.723 20.999 102.458 21.3794C102.205 21.7599 102.079 22.2324 102.079 22.7969V24.0855C102.079 24.6992 102.205 25.2146 102.458 25.6319C102.723 26.0369 103.064 26.3437 103.48 26.5523C103.909 26.7487 104.364 26.8469 104.843 26.8469Z" fill="#FA5705"/>
<path d="M111.58 28.5254V19.0231H113.559V28.5254H111.58ZM112.569 17.9738C112.198 17.9738 111.892 17.863 111.652 17.6415C111.424 17.4083 111.31 17.111 111.31 16.7496C111.31 16.3882 111.424 16.0967 111.652 15.8752C111.892 15.642 112.198 15.5254 112.569 15.5254C112.941 15.5254 113.241 15.642 113.469 15.8752C113.709 16.0967 113.829 16.3882 113.829 16.7496C113.829 17.111 113.709 17.4083 113.469 17.6415C113.241 17.863 112.941 17.9738 112.569 17.9738Z" fill="#FA5705"/>
<path d="M120.343 28.5254C119.479 28.5254 118.683 28.3503 117.955 28C117.227 27.6377 116.64 27.0942 116.196 26.3696C115.752 25.645 115.53 24.7271 115.53 23.616V23.2537C115.53 22.1908 115.739 21.3092 116.159 20.6087C116.591 19.9082 117.159 19.3889 117.862 19.0508C118.566 18.7005 119.331 18.5254 120.158 18.5254C121.652 18.5254 122.793 18.9179 123.583 19.7029C124.386 20.488 124.787 21.6111 124.787 23.0725V24.087H117.603C117.628 24.7392 117.77 25.2645 118.029 25.6631C118.288 26.0616 118.621 26.3515 119.029 26.5326C119.436 26.7017 119.874 26.7863 120.343 26.7863C121.047 26.7863 121.559 26.6776 121.88 26.4602C122.213 26.2428 122.442 25.959 122.565 25.6087H124.602C124.404 26.5628 123.917 27.2875 123.139 27.7826C122.374 28.2778 121.442 28.5254 120.343 28.5254ZM120.251 20.2645C119.794 20.2645 119.368 20.343 118.973 20.5C118.578 20.657 118.257 20.9046 118.01 21.2428C117.764 21.5809 117.628 22.0338 117.603 22.6015H122.75C122.738 21.9976 122.621 21.5266 122.398 21.1884C122.176 20.8503 121.88 20.6148 121.51 20.4819C121.139 20.337 120.72 20.2645 120.251 20.2645Z" fill="#FA5705"/>
<path d="M131.57 28.5254C130.697 28.5254 129.985 28.4129 129.432 28.188C128.894 27.963 128.494 27.6124 128.232 27.1361C127.985 26.6465 127.861 26.018 127.861 25.2506V19.7727H126.225V17.9071H127.861V15.5254H130.261V17.9071H133.206V19.7727H130.261V24.9529C130.261 25.5748 130.385 26.0114 130.632 26.2628C130.894 26.501 131.388 26.62 132.116 26.62C132.552 26.62 132.988 26.6002 133.425 26.5605V28.4262C133.148 28.4526 132.865 28.4725 132.574 28.4857C132.283 28.5122 131.948 28.5254 131.57 28.5254Z" fill="#FA5705"/>
<path d="M138.326 28.5254C137.571 28.5254 136.922 28.3986 136.379 28.145C135.85 27.8793 135.446 27.5169 135.168 27.058C134.89 26.5991 134.75 26.0858 134.75 25.5181C134.75 24.564 135.062 23.8575 135.684 23.3986C136.307 22.9276 137.22 22.6921 138.426 22.6921H141.703V22.1667C141.703 21.4421 141.524 20.9469 141.167 20.6812C140.823 20.4034 140.273 20.2645 139.518 20.2645C138.843 20.2645 138.346 20.3611 138.028 20.5544C137.71 20.7476 137.525 21.0133 137.472 21.3515H135.346C135.386 20.7959 135.578 20.3068 135.923 19.8841C136.267 19.4614 136.75 19.1293 137.373 18.8877C138.008 18.6462 138.757 18.5254 139.617 18.5254C140.478 18.5254 141.227 18.6462 141.862 18.8877C142.511 19.1293 143.008 19.5097 143.352 20.029C143.71 20.5363 143.888 21.2126 143.888 22.058V25.8805C143.888 26.3877 143.895 26.8346 143.908 27.221C143.922 27.5954 143.908 27.9316 144.225 28.5254H142.167C142.167 28.5254 141.947 27.9907 141.922 27.6196C141.909 27.4264 141.902 27.1848 141.902 26.895C141.65 27.3418 141.213 27.7283 140.591 28.0544C139.982 28.3684 139.227 28.5254 138.326 28.5254ZM138.922 26.7863C139.425 26.7863 139.882 26.7078 140.293 26.5508C140.717 26.3937 141.054 26.1582 141.306 25.8442C141.571 25.5302 141.703 25.1498 141.703 24.7029V24.1776H138.823C138.267 24.1776 137.816 24.2863 137.472 24.5037C137.141 24.721 136.975 25.0411 136.975 25.4638C136.975 25.8623 137.128 26.1824 137.432 26.4239C137.75 26.6655 138.247 26.7863 138.922 26.7863Z" fill="#FA5705"/>
<g clip-path="url(#clip0_3327_1177)">
<path d="M56.3982 17.8423C51.6709 8.47483 41.9637 2.05078 30.7564 2.05078C14.9027 2.05078 2.05078 14.9055 2.05078 30.7626C2.05078 46.6197 14.9027 59.4745 30.7564 59.4745C41.3815 59.4745 50.6583 53.7005 55.6216 45.1186C55.8153 44.7838 55.8855 44.6058 55.8855 44.0931" stroke="#FA5705" stroke-width="3.58898"/>
<path d="M30.7629 16.4814C38.6508 16.4817 45.0452 22.8767 45.0452 30.7646C45.0449 38.6524 38.6507 45.0466 30.7629 45.0469C22.875 45.0469 16.48 38.6525 16.4797 30.7646C16.4797 22.8765 22.8748 16.4814 30.7629 16.4814Z" stroke="#FA5705" stroke-width="2.19734"/>
<rect x="7.17773" y="15.3828" width="47.1695" height="2.05085" fill="#FA5705"/>
<rect x="26.6606" y="46.1465" width="30.7627" height="2.05085" transform="rotate(-90 26.6606 46.1465)" fill="#FA5705"/>
<rect x="7.17773" y="43.752" width="57.389" height="2.05085" transform="rotate(-29.6263 7.17773 43.752)" fill="#FA5705"/>
<rect x="33.6804" y="30.4922" width="18.483" height="2.05085" transform="rotate(47.5091 33.6804 30.4922)" fill="#FA5705"/>
<rect x="7.17773" y="44.0938" width="49.2203" height="2.05085" fill="#FA5705"/>
</g>
<defs>
<clipPath id="clip0_3327_1177">
<rect width="58.4491" height="61.5254" fill="white"/>
</clipPath>
</defs>
</svg>
