<svg width="20" height="20" viewBox="0 0 20 20" fill="none" xmlns="http://www.w3.org/2000/svg">
<path d="M16.4 2H6.8C5.92 2 5.2 2.72 5.2 3.6V13.2C5.2 14.08 5.92 14.8 6.8 14.8H16.4C17.28 14.8 18 14.08 18 13.2V3.6C18 2.72 17.28 2 16.4 2ZM9.6 8C9.6 8.664 9.064 9.2 8.4 9.2H7.6V10.8H6.4V6H8.4C9.064 6 9.6 6.536 9.6 7.2V8ZM13.6 9.6C13.6 10.264 13.064 10.8 12.4 10.8H10.4V6H12.4C13.064 6 13.6 6.536 13.6 7.2V9.6ZM16.8 7.2H15.6V8H16.8V9.2H15.6V10.8H14.4V6H16.8V7.2ZM7.6 8H8.4V7.2H7.6V8ZM3.6 5.2H2V16.4C2 17.28 2.72 18 3.6 18H14.8V16.4H3.6V5.2ZM11.6 9.6H12.4V7.2H11.6V9.6Z" fill="#FFFCFA"/>
</svg>
