<svg width="24" height="24" viewBox="0 0 24 24" fill="none" xmlns="http://www.w3.org/2000/svg">
<path d="M6.00008 22.5001C6.00012 22.3031 6.039 22.1079 6.1145 21.9259C6.18999 21.7438 6.30063 21.5784 6.44008 21.4391L14.1111 13.7681C14.3433 13.536 14.5275 13.2604 14.6532 12.957C14.7788 12.6536 14.8435 12.3285 14.8435 12.0001C14.8435 11.6718 14.7788 11.3466 14.6532 11.0433C14.5275 10.7399 14.3433 10.4643 14.1111 10.2321L6.44908 2.57014C6.17584 2.28724 6.02465 1.90834 6.02807 1.51504C6.03148 1.12175 6.18924 0.745528 6.46735 0.467416C6.74546 0.189304 7.12168 0.0315505 7.51497 0.0281329C7.90827 0.0247152 8.28717 0.175907 8.57007 0.449144L16.2321 8.11114C17.2622 9.14324 17.8408 10.5419 17.8408 12.0001C17.8408 13.4584 17.2622 14.8571 16.2321 15.8891L8.56007 23.5611C8.35024 23.7707 8.08299 23.9134 7.7921 23.9711C7.50121 24.0289 7.19973 23.9991 6.92577 23.8855C6.6518 23.772 6.41764 23.5798 6.25288 23.3332C6.08811 23.0866 6.00014 22.7967 6.00008 22.5001Z" fill="#FFFCFA"/>
</svg>
